<svg width="3972" height="3763" viewBox="0 0 3972 3763" fill="none" xmlns="http://www.w3.org/2000/svg">
<rect width="3972" height="3763" rx="500" fill="#FFF1BF"/>
<rect x="355.633" y="881.165" width="3250.53" height="2245.49" rx="460.5" transform="rotate(0.155147 355.633 881.165)" fill="#083979" stroke="#F2FF00" stroke-width="39"/>
<path d="M2002.08 1270.21C2449.44 1285.14 2796.36 1630.95 2780.5 2039.43C2764.63 2447.91 2391.78 2769.69 1944.42 2754.76C1497.05 2739.83 1150.13 2394.01 1165.99 1985.53C1181.86 1577.05 1554.71 1255.27 2002.08 1270.21Z" fill="#083979" stroke="#FFF700" stroke-width="39"/>
<path d="M1993.28 1636.3C2220.32 1643.88 2395.03 1819.16 2387.05 2024.63C2379.07 2230.11 2191.21 2393.28 1964.17 2385.7C1737.13 2378.12 1562.42 2202.84 1570.4 1997.37C1578.38 1791.89 1766.24 1628.72 1993.28 1636.3Z" fill="#083979" stroke="#FFF700" stroke-width="39"/>
<path d="M3226.56 1175.69C3297.81 1178.07 3350.74 1232.76 3348.34 1294.69C3345.93 1356.61 3288.89 1407.63 3217.64 1405.26C3146.4 1402.88 3093.46 1348.18 3095.87 1286.26C3098.27 1224.33 3155.31 1173.31 3226.56 1175.69Z" stroke="#FF0000" stroke-width="39"/>
<path d="M3223.28 1255.24C3246.64 1256.02 3262.14 1273.65 3261.45 1291.45C3260.76 1309.25 3243.93 1325.8 3220.57 1325.02C3197.21 1324.24 3181.71 1306.61 3182.4 1288.81C3183.09 1271.01 3199.92 1254.46 3223.28 1255.24Z" stroke="#FF0000" stroke-width="39"/>
<path d="M3033.22 894.245L956.102 888.621C932.682 888.557 918.363 862.88 930.618 842.922L1196.65 409.697C1202.12 400.786 1211.84 395.368 1222.3 395.396L2800.66 399.67C2811.69 399.7 2821.82 405.782 2827.02 415.507L3059.75 850.083C3070.47 870.099 3055.93 894.307 3033.22 894.245Z" fill="#083979" stroke="#F2FF00" stroke-width="39"/>
</svg>
