<svg width="1761" height="1495" viewBox="0 0 1761 1495" fill="none" xmlns="http://www.w3.org/2000/svg">
<rect x="22.7508" y="288.814" width="1717.77" height="1181.03" rx="180.5" transform="rotate(0.155147 22.7508 288.814)" fill="#083979" stroke="#F2FF00" stroke-width="39"/>
<path d="M892.617 496.55C1127.23 504.382 1307.86 685.521 1299.61 897.972C1291.35 1110.42 1097.14 1279.05 862.53 1271.22C627.918 1263.38 447.289 1082.24 455.541 869.794C463.792 657.344 658.006 488.718 892.617 496.55Z" fill="#083979" stroke="#FFF700" stroke-width="39"/>
<path d="M887.919 692.062C1004.87 695.966 1093.52 786.033 1089.48 890.068C1085.44 994.103 990.027 1078.03 873.08 1074.12C756.132 1070.22 667.475 980.15 671.515 876.115C675.556 772.08 770.971 688.158 887.919 692.062Z" fill="#083979" stroke="#FFF700" stroke-width="39"/>
<path d="M1546.55 446.072C1580.3 447.198 1603.92 472.867 1602.86 500.24C1601.79 527.614 1576.24 551.641 1542.5 550.514C1508.75 549.388 1485.13 523.719 1486.19 496.346C1487.25 468.972 1512.81 444.945 1546.55 446.072Z" stroke="#FF0000" stroke-width="39"/>
<mask id="path-5-inside-1_322_151" fill="white">
<ellipse cx="31.5338" cy="29.0609" rx="31.5338" ry="29.0609" transform="matrix(0.999443 0.0333646 -0.0388101 0.999247 1514.04 468.021)"/>
</mask>
<path d="M1575.95 499.165L1536.97 497.864C1537.12 494.039 1538.99 491.249 1540.62 489.851C1542.19 488.502 1543.77 488.146 1544.82 488.181L1543.3 527.152L1541.79 566.122C1577.66 567.32 1613.35 540.962 1614.92 500.466L1575.95 499.165ZM1543.3 527.152L1544.82 488.181C1545.87 488.216 1547.41 488.676 1548.88 490.127C1550.39 491.629 1552.04 494.537 1551.89 498.362L1512.91 497.061L1473.94 495.759C1472.36 536.255 1505.91 564.925 1541.79 566.122L1543.3 527.152ZM1512.91 497.061L1551.89 498.362C1551.74 502.186 1549.87 504.977 1548.24 506.374C1546.67 507.724 1545.09 508.079 1544.04 508.044L1545.56 469.074L1547.07 430.103C1511.2 428.905 1475.51 455.263 1473.94 495.759L1512.91 497.061ZM1545.56 469.074L1544.04 508.044C1542.99 508.009 1541.45 507.549 1539.99 506.098C1538.47 504.596 1536.82 501.688 1536.97 497.864L1575.95 499.165L1614.92 500.466C1616.5 459.97 1582.95 431.301 1547.07 430.103L1545.56 469.074Z" fill="#FF0000" mask="url(#path-5-inside-1_322_151)"/>
<path d="M1470.49 286.762L305.821 283.608L467.539 20.2553L1329.02 22.588L1470.49 286.762Z" fill="#083979" stroke="#F2FF00" stroke-width="39"/>
</svg>
