<svg width="3297" height="2780" viewBox="0 0 3297 2780" fill="none" xmlns="http://www.w3.org/2000/svg">
<rect x="25.633" y="506.165" width="3250.53" height="2245.49" rx="460.5" transform="rotate(0.155147 25.633 506.165)" fill="#083979" stroke="#F2FF00" stroke-width="39"/>
<path d="M1672.08 895.206C2119.44 910.14 2466.36 1255.95 2450.5 1664.43C2434.63 2072.91 2061.78 2394.69 1614.42 2379.76C1167.05 2364.83 820.125 2019.01 835.99 1610.53C851.855 1202.05 1224.71 880.271 1672.08 895.206Z" fill="#083979" stroke="#FFF700" stroke-width="39"/>
<path d="M1663.28 1261.3C1890.32 1268.88 2065.03 1444.16 2057.05 1649.63C2049.07 1855.11 1861.21 2018.28 1634.17 2010.7C1407.13 2003.12 1232.42 1827.84 1240.4 1622.37C1248.38 1416.89 1436.24 1253.72 1663.28 1261.3Z" fill="#083979" stroke="#FFF700" stroke-width="39"/>
<path d="M2896.56 800.687C2967.81 803.065 3020.74 857.759 3018.34 919.686C3015.93 981.612 2958.89 1032.63 2887.64 1030.26C2816.4 1027.88 2763.46 973.183 2765.87 911.257C2768.27 849.331 2825.31 798.309 2896.56 800.687Z" stroke="#FF0000" stroke-width="39"/>
<path d="M2893.28 880.242C2916.64 881.022 2932.14 898.65 2931.45 916.452C2930.76 934.253 2913.93 950.803 2890.57 950.023C2867.21 949.243 2851.71 931.614 2852.4 913.813C2853.09 896.011 2869.92 879.463 2893.28 880.242Z" stroke="#FF0000" stroke-width="39"/>
<path d="M2703.22 519.245L626.102 513.621C602.682 513.557 588.363 487.88 600.618 467.922L866.651 34.6974C872.123 25.7865 881.84 20.3678 892.297 20.3961L2470.66 24.6701C2481.69 24.6999 2491.82 30.7821 2497.02 40.5072L2729.75 475.083C2740.47 495.099 2725.93 519.307 2703.22 519.245Z" fill="#083979" stroke="#F2FF00" stroke-width="39"/>
</svg>
