<svg width="5679" height="5295" viewBox="0 0 5679 5295" fill="none" xmlns="http://www.w3.org/2000/svg">
<rect x="192.917" y="1045.07" width="4650" height="4205" rx="434.5" transform="rotate(-10.2348 192.917 1045.07)" fill="#FFEA00" stroke="black" stroke-width="13"/>
<rect x="792.918" y="7.53874" width="4954.52" height="4480.46" rx="434.5" transform="rotate(10.0955 792.918 7.53874)" fill="#FCFFC3" stroke="black" stroke-width="13"/>
<rect x="788" y="832" width="4133" height="3739" rx="441" fill="#08198E"/>
<circle cx="1596.49" cy="1535.5" r="427.5" fill="#FFFF00"/>
<path d="M1794.23 2754.94C1285.43 2596.69 1010.97 3345 844.464 3833.18L791 3919.15V4027.66V4135.64V4221.08L813.539 4302.33L844.464 4360.51L903.693 4428.13L966.592 4473.21L1029.49 4513.57L1160 4577H4504.64L4635.15 4549.74L4801.83 4423.94L4838 4360.51L4878.36 4297.61L4914 4203.26V4130.92V4009.83C4792.22 3261.83 4914 1900 4026.61 1900C3388.32 1900 3402.34 3698.99 2781.74 3681.7C2161.14 3664.4 2279.6 2905.91 1794.23 2754.94Z" fill="#3657FF"/>
</svg>
