<svg width="2394" height="2331" viewBox="0 0 2394 2331" fill="none" xmlns="http://www.w3.org/2000/svg">
<rect x="240" y="260" width="1913" height="1812" rx="500" fill="#FFF1BF"/>
<rect x="581.965" width="1913.32" height="1812.68" rx="500" transform="rotate(18.7265 581.965 0)" fill="white"/>
<path d="M562.52 910.21C555.253 910.21 543.99 907.303 528.73 901.49C514.197 895.677 500.39 885.503 487.31 870.97C474.957 856.437 468.78 835.727 468.78 808.84C468.78 794.307 473.867 780.863 484.04 768.51C494.94 755.43 506.203 743.803 517.83 733.63C558.523 697.297 598.127 672.953 636.64 660.6C675.153 648.247 714.757 642.07 755.45 642.07C799.777 642.07 839.017 648.973 873.17 662.78C908.05 675.86 937.48 694.027 961.46 717.28C985.44 739.807 1003.61 765.603 1015.96 794.67C1028.31 823.01 1034.49 852.077 1034.49 881.87C1034.49 921.11 1024.32 955.627 1003.97 985.42C984.35 1015.21 960.37 1038.47 932.03 1055.18C973.45 1068.99 1006.51 1086.43 1031.22 1107.5C1055.93 1128.57 1073.37 1152.19 1083.54 1178.35C1094.44 1204.51 1099.89 1232.85 1099.89 1263.37C1099.89 1306.24 1087.9 1346.21 1063.92 1383.27C1040.67 1419.6 1005.06 1449.03 957.1 1471.56C909.14 1493.36 849.19 1504.26 777.25 1504.26C746.003 1504.26 713.303 1501.35 679.15 1495.54C645.723 1489.73 613.023 1479.92 581.05 1466.11C549.077 1451.58 520.01 1431.59 493.85 1406.16C486.583 1398.89 480.407 1391.26 475.32 1383.27C470.96 1375.28 468.78 1364.74 468.78 1351.66C468.78 1337.13 473.503 1321.87 482.95 1305.88C493.123 1289.17 505.477 1275.36 520.01 1264.46C535.27 1252.83 550.167 1247.02 564.7 1247.02C591.587 1247.02 618.473 1262.64 645.36 1293.89C652.627 1301.88 661.347 1309.51 671.52 1316.78C681.693 1324.05 694.41 1330.22 709.67 1335.31C725.657 1339.67 744.187 1341.85 765.26 1341.85C788.513 1341.85 808.497 1337.49 825.21 1328.77C842.65 1319.32 856.093 1306.97 865.54 1291.71C875.713 1276.45 880.8 1260.1 880.8 1242.66C880.8 1212.87 871.353 1190.34 852.46 1175.08C834.293 1159.09 815.763 1147.83 796.87 1141.29C781.61 1148.56 765.26 1154.01 747.82 1157.64C731.107 1160.55 714.757 1162.36 698.77 1163.09C683.51 1163.09 670.067 1162 658.44 1159.82C643.18 1156.91 629.01 1150.74 615.93 1141.29C602.85 1131.84 596.31 1116.95 596.31 1096.6C596.31 1074.07 603.577 1057 618.11 1045.37C632.643 1033.02 648.267 1024.3 664.98 1019.21C688.233 1011.22 708.943 1006.49 727.11 1005.04C745.277 1003.59 764.897 1003.59 785.97 1005.04C804.863 992.687 818.67 977.427 827.39 959.26C836.837 941.093 841.56 922.927 841.56 904.76C841.56 889.5 839.017 875.693 833.93 863.34C828.843 850.26 821.577 839.36 812.13 830.64C803.41 821.92 792.873 815.38 780.52 811.02C768.893 805.933 756.54 803.39 743.46 803.39C716.573 803.39 692.23 810.293 670.43 824.1C648.63 837.907 628.283 857.163 609.39 881.87C604.303 889.137 597.037 895.677 587.59 901.49C578.87 907.303 570.513 910.21 562.52 910.21Z" fill="#042652"/>
<path d="M617.52 882.21C610.253 882.21 598.99 879.303 583.73 873.49C569.197 867.677 555.39 857.503 542.31 842.97C529.957 828.437 523.78 807.727 523.78 780.84C523.78 766.307 528.867 752.863 539.04 740.51C549.94 727.43 561.203 715.803 572.83 705.63C613.523 669.297 653.127 644.953 691.64 632.6C730.153 620.247 769.757 614.07 810.45 614.07C854.777 614.07 894.017 620.973 928.17 634.78C963.05 647.86 992.48 666.027 1016.46 689.28C1040.44 711.807 1058.61 737.603 1070.96 766.67C1083.31 795.01 1089.49 824.077 1089.49 853.87C1089.49 893.11 1079.32 927.627 1058.97 957.42C1039.35 987.213 1015.37 1010.47 987.03 1027.18C1028.45 1040.99 1061.51 1058.43 1086.22 1079.5C1110.93 1100.57 1128.37 1124.19 1138.54 1150.35C1149.44 1176.51 1154.89 1204.85 1154.89 1235.37C1154.89 1278.24 1142.9 1318.21 1118.92 1355.27C1095.67 1391.6 1060.06 1421.03 1012.1 1443.56C964.14 1465.36 904.19 1476.26 832.25 1476.26C801.003 1476.26 768.303 1473.35 734.15 1467.54C700.723 1461.73 668.023 1451.92 636.05 1438.11C604.077 1423.58 575.01 1403.59 548.85 1378.16C541.583 1370.89 535.407 1363.26 530.32 1355.27C525.96 1347.28 523.78 1336.74 523.78 1323.66C523.78 1309.13 528.503 1293.87 537.95 1277.88C548.123 1261.17 560.477 1247.36 575.01 1236.46C590.27 1224.83 605.167 1219.02 619.7 1219.02C646.587 1219.02 673.473 1234.64 700.36 1265.89C707.627 1273.88 716.347 1281.51 726.52 1288.78C736.693 1296.05 749.41 1302.22 764.67 1307.31C780.657 1311.67 799.187 1313.85 820.26 1313.85C843.513 1313.85 863.497 1309.49 880.21 1300.77C897.65 1291.32 911.093 1278.97 920.54 1263.71C930.713 1248.45 935.8 1232.1 935.8 1214.66C935.8 1184.87 926.353 1162.34 907.46 1147.08C889.293 1131.09 870.763 1119.83 851.87 1113.29C836.61 1120.56 820.26 1126.01 802.82 1129.64C786.107 1132.55 769.757 1134.36 753.77 1135.09C738.51 1135.09 725.067 1134 713.44 1131.82C698.18 1128.91 684.01 1122.74 670.93 1113.29C657.85 1103.84 651.31 1088.95 651.31 1068.6C651.31 1046.07 658.577 1029 673.11 1017.37C687.643 1005.02 703.267 996.297 719.98 991.21C743.233 983.217 763.943 978.493 782.11 977.04C800.277 975.587 819.897 975.587 840.97 977.04C859.863 964.687 873.67 949.427 882.39 931.26C891.837 913.093 896.56 894.927 896.56 876.76C896.56 861.5 894.017 847.693 888.93 835.34C883.843 822.26 876.577 811.36 867.13 802.64C858.41 793.92 847.873 787.38 835.52 783.02C823.893 777.933 811.54 775.39 798.46 775.39C771.573 775.39 747.23 782.293 725.43 796.1C703.63 809.907 683.283 829.163 664.39 853.87C659.303 861.137 652.037 867.677 642.59 873.49C633.87 879.303 625.513 882.21 617.52 882.21Z" fill="#042652"/>
<path d="M1185.94 1595V782.95H1450.81C1538.74 782.95 1615.04 800.39 1679.71 835.27C1744.38 870.15 1794.52 918.11 1830.13 979.15C1865.74 1040.19 1883.54 1109.95 1883.54 1188.43C1883.54 1266.91 1865.74 1337.03 1830.13 1398.8C1794.52 1459.84 1744.38 1507.8 1679.71 1542.68C1615.04 1577.56 1538.74 1595 1450.81 1595H1185.94ZM1354.89 1447.85H1455.17C1508.22 1447.85 1554 1437.31 1592.51 1416.24C1631.02 1394.44 1660.82 1364.28 1681.89 1325.77C1703.69 1286.53 1714.59 1240.75 1714.59 1188.43C1714.59 1135.38 1703.69 1089.6 1681.89 1051.09C1660.82 1012.58 1631.02 982.783 1592.51 961.71C1554 940.637 1508.22 930.1 1455.17 930.1H1354.89V1447.85Z" fill="#042652"/>
<path d="M1185.94 1704V891.95H1450.81C1538.74 891.95 1615.04 909.39 1679.71 944.27C1744.38 979.15 1794.52 1027.11 1830.13 1088.15C1865.74 1149.19 1883.54 1218.95 1883.54 1297.43C1883.54 1375.91 1865.74 1446.03 1830.13 1507.8C1794.52 1568.84 1744.38 1616.8 1679.71 1651.68C1615.04 1686.56 1538.74 1704 1450.81 1704H1185.94ZM1354.89 1556.85H1455.17C1508.22 1556.85 1554 1546.31 1592.51 1525.24C1631.02 1503.44 1660.82 1473.28 1681.89 1434.77C1703.69 1395.53 1714.59 1349.75 1714.59 1297.43C1714.59 1244.38 1703.69 1198.6 1681.89 1160.09C1660.82 1121.58 1631.02 1091.78 1592.51 1070.71C1554 1049.64 1508.22 1039.1 1455.17 1039.1H1354.89V1556.85Z" fill="#042652"/>
</svg>
