<svg width="2528" height="2474" viewBox="0 0 2528 2474" fill="none" xmlns="http://www.w3.org/2000/svg">
<rect x="636.266" y="47" width="1953.77" height="1851" rx="500" transform="rotate(18.7265 636.266 47)" fill="#FFF1BF"/>
<rect x="0.834106" y="773.994" width="1953.77" height="1851" rx="500" transform="rotate(-23.3217 0.834106 773.994)" fill="#FFFF00"/>
<rect x="530.216" y="783.28" width="1433.23" height="983.423" rx="180.5" transform="rotate(0.155147 530.216 783.28)" fill="#083979" stroke="#F2FF00" stroke-width="39"/>
<path d="M1255.92 957.358C1451.04 963.872 1600.79 1114.44 1593.95 1290.5C1587.12 1466.56 1426.07 1606.75 1230.95 1600.24C1035.83 1593.73 886.076 1443.16 892.914 1267.1C899.752 1091.04 1060.8 950.844 1255.92 957.358Z" fill="#083979" stroke="#FFF700" stroke-width="39"/>
<path d="M1251.98 1121.2C1348.49 1124.43 1421.17 1198.67 1417.86 1283.88C1414.56 1369.08 1336.3 1438.29 1239.79 1435.07C1143.28 1431.85 1070.6 1357.6 1073.91 1272.4C1077.22 1187.19 1155.47 1117.98 1251.98 1121.2Z" fill="#083979" stroke="#FFF700" stroke-width="39"/>
<path d="M1803.94 915.055C1830.72 915.949 1848.9 936.23 1848.09 957.189C1847.28 978.148 1827.57 997.163 1800.78 996.269C1774 995.375 1755.82 975.095 1756.63 954.136C1757.44 933.176 1777.15 914.161 1803.94 915.055Z" stroke="#FF0000" stroke-width="39"/>
<mask id="path-7-inside-1_573_26" fill="white">
<ellipse cx="26.4263" cy="24.354" rx="26.4263" ry="24.354" transform="matrix(0.999443 0.0333646 -0.0388101 0.999247 1776.82 930.294)"/>
</mask>
<path d="M1828.69 956.393L1789.71 955.092C1789.91 949.969 1792.4 946.021 1794.99 943.804C1797.52 941.634 1800.39 940.794 1802.85 940.876L1801.34 979.847L1799.82 1018.82C1832.88 1019.92 1866.2 995.592 1867.67 957.694L1828.69 956.393ZM1801.34 979.847L1802.85 940.876C1805.31 940.958 1808.11 941.987 1810.47 944.32C1812.87 946.705 1815.05 950.808 1814.85 955.931L1775.87 954.63L1736.89 953.328C1735.42 991.227 1766.77 1017.71 1799.82 1018.82L1801.34 979.847ZM1775.87 954.63L1814.85 955.931C1814.65 961.054 1812.16 965.001 1809.58 967.219C1807.05 969.389 1804.17 970.228 1801.71 970.146L1803.23 931.176L1804.74 892.205C1771.68 891.102 1738.36 915.43 1736.89 953.328L1775.87 954.63ZM1803.23 931.176L1801.71 970.146C1799.25 970.064 1796.45 969.035 1794.1 966.702C1791.69 964.318 1789.52 960.215 1789.71 955.092L1828.69 956.393L1867.67 957.694C1869.14 919.796 1837.8 893.309 1804.74 892.205L1803.23 931.176Z" fill="#FF0000" mask="url(#path-7-inside-1_573_26)"/>
<path d="M1740.32 778.393L764.287 775.75L899.813 555.052L1621.76 557.007L1740.32 778.393Z" fill="#083979" stroke="#F2FF00" stroke-width="39"/>
</svg>
