<svg width="2875" height="2886" viewBox="0 0 2875 2886" fill="none" xmlns="http://www.w3.org/2000/svg">
<rect x="232" y="393.593" width="2319.41" height="2197.41" rx="500" transform="rotate(-2.41152 232 393.593)" fill="#FFF1BF"/>
<rect x="482.002" y="161.816" width="2319.41" height="2197.41" rx="500" transform="rotate(9.83882 482.002 161.816)" fill="#FFFF00"/>
<rect width="1515.34" height="1378.56" rx="300" transform="matrix(0.998811 0.0487495 0.00084602 1 680.438 716.01)" fill="#08198E"/>
<ellipse cx="156.72" cy="157.603" rx="156.72" ry="157.603" transform="matrix(0.998811 0.0487495 0.00084602 1 820.405 824.923)" fill="#FFFF00"/>
<ellipse cx="156.72" cy="157.603" rx="156.72" ry="157.603" transform="matrix(0.998811 0.0487495 0.00084602 1 820.405 824.923)" fill="#FFFF00"/>
<path d="M1049.34 1442.76C862.872 1375.29 762.551 1646.38 701.699 1823.45L682.138 1854.21L682.172 1894.22L682.206 1934.05L682.233 1965.56L690.516 1995.93L701.864 2017.95L723.585 2043.95L746.644 2061.7L769.701 2077.71L817.539 2103.44L2042.93 2163.24L2090.74 2155.52L2151.77 2112.11L2165 2089.36L2179.77 2066.88L2192.8 2032.72L2192.78 2006.04L2192.74 1961.38C2147.89 1683.32 2192.08 1183.22 1866.96 1167.35C1633.11 1155.94 1638.8 1819.7 1411.43 1802.22C1184.05 1784.75 1227.21 1507.11 1049.34 1442.76Z" fill="#3657FF"/>
</svg>
