<svg width="40" height="40" viewBox="0 0 40 40" fill="none" xmlns="http://www.w3.org/2000/svg">
<path d="M34.5346 5.38747C35.0507 4.87084 35.8857 4.87084 36.4018 5.38747C36.9179 5.90409 36.9179 6.74162 36.4018 7.25825L31.1596 12.5056C30.6558 13.0099 29.8455 13.024 29.3241 12.5373L26.6396 10.0318C26.1077 9.53456 26.0777 8.69703 26.5762 8.16278C27.073 7.62852 27.9097 7.60031 28.4434 8.09754L30.1943 9.73204L34.5346 5.38747Z" fill="#4798D9"/>
<path d="M11.6881 16.9013C13.1466 16.9013 14.3304 15.7164 14.3304 14.2565C14.3304 12.7965 13.1466 11.6116 11.6881 11.6116C10.2296 11.6116 9.0459 12.7965 9.0459 14.2565C9.0459 15.7164 10.2296 16.9013 11.6881 16.9013Z" fill="#4798D9"/>
<path fill-rule="evenodd" clip-rule="evenodd" d="M5.07027 29.3814C4.79548 28.8048 4.64223 28.1612 4.64223 27.4806V13.3748C4.64223 10.9398 6.61333 8.96679 9.04594 8.96679H23.5782C24.3075 8.96679 24.8993 8.37435 24.8993 7.64438C24.8993 6.9144 24.3075 6.32196 23.5782 6.32196H9.04594C5.15482 6.32196 2 9.47989 2 13.3748V27.4806C2 31.3756 5.15482 34.5335 9.04594 34.5335H30.1838C34.0749 34.5335 37.2297 31.3756 37.2297 27.4806V14.6973C37.2297 13.9673 36.6379 13.3748 35.9086 13.3748C35.1793 13.3748 34.5875 13.9673 34.5875 14.6973V27.4806C34.5875 28.1101 34.4554 28.7096 34.2176 29.2509L28.04 18.5711C26.3261 15.6053 21.9453 15.9439 20.7052 19.137L18.7605 24.1411C18.2885 25.3595 16.6221 25.5005 15.9492 24.3791C14.3973 21.7889 10.7053 21.625 8.92968 24.0688L5.07027 29.3814ZM23.1678 20.0962C23.6046 18.9695 25.1494 18.8514 25.7536 19.897L32.3574 31.3139C31.7163 31.6806 30.9747 31.8887 30.1838 31.8887H9.04594C8.27265 31.8887 7.54692 31.6894 6.91454 31.3385L11.0664 25.6239C11.7287 24.7141 13.1062 24.7741 13.6839 25.7403C15.4859 28.7466 19.9548 28.3675 21.2231 25.0985L23.1678 20.0962Z" fill="#EFA70C"/>
</svg>
