<svg width="40" height="40" viewBox="0 0 40 40" fill="none" xmlns="http://www.w3.org/2000/svg">
<path d="M17.1309 13.8476C17.778 13.4446 17.9748 12.5925 17.5703 11.9466C17.1658 11.2988 16.3164 11.1037 15.6711 11.5068L10.8102 14.5469C8.79521 15.8075 8.79521 18.7483 10.8102 20.0089L15.6711 23.0491C16.3164 23.454 17.1658 23.2571 17.5703 22.6111C17.9748 21.9633 17.778 21.1131 17.1309 20.7082L12.2718 17.6681C11.985 17.4877 11.985 17.0681 12.2718 16.8878L17.1309 13.8476Z" fill="#4798D9"/>
<path d="M22.5861 11.9466C22.1816 12.5925 22.3783 13.4446 23.0255 13.8476L27.8846 16.8878C28.1714 17.0681 28.1714 17.4877 27.8846 17.6681L23.0255 20.7082C22.3783 21.1131 22.1816 21.9633 22.5861 22.6111C22.9905 23.2571 23.8399 23.454 24.4852 23.0491L29.3462 20.0089C31.3612 18.7483 31.3612 15.8075 29.3462 14.5469L24.4852 11.5068C23.8399 11.1037 22.9905 11.2988 22.5861 11.9466Z" fill="#4798D9"/>
<path fill-rule="evenodd" clip-rule="evenodd" d="M31.109 2.55554H9.04718C4.98596 2.55554 1.69324 5.85151 1.69324 9.91673V24.6391C1.69324 28.7043 4.98596 32.0003 9.04718 32.0003H31.109C35.1702 32.0003 38.4629 28.7043 38.4629 24.6391V9.91673C38.4629 5.85151 35.1702 2.55554 31.109 2.55554ZM9.04718 5.31599H31.109C33.648 5.31599 35.7052 7.37528 35.7052 9.91673V24.6391C35.7052 27.1806 33.648 29.2398 31.109 29.2398H9.04718C6.50823 29.2398 4.45097 27.1806 4.45097 24.6391V9.91673C4.45097 7.37528 6.50823 5.31599 9.04718 5.31599Z" fill="#EFA70C"/>
<path d="M16.4012 34.684C15.6401 34.684 15.0223 35.3023 15.0223 36.0642C15.0223 36.8261 15.6401 37.4444 16.4012 37.4444H23.7551C24.5163 37.4444 25.134 36.8261 25.134 36.0642C25.134 35.3023 24.5163 34.684 23.7551 34.684H16.4012Z" fill="#EFA70C"/>
</svg>
