<svg width="40" height="40" viewBox="0 0 40 40" fill="none" xmlns="http://www.w3.org/2000/svg">
<path d="M3.75 5.83334C3.75 5.14299 4.30964 4.58334 5 4.58334H33.3333C34.0237 4.58334 34.5833 5.14299 34.5833 5.83335C34.5833 6.5237 34.0237 7.08335 33.3333 7.08335L5 7.08334C4.30964 7.08334 3.75 6.5237 3.75 5.83334Z" fill="#4798D9"/>
<path d="M30 17.9167C30.6904 17.9167 31.25 18.4763 31.25 19.1667V24.5833H36.6667C37.357 24.5833 37.9167 25.143 37.9167 25.8333C37.9167 26.5237 37.357 27.0833 36.6667 27.0833H31.25V32.5C31.25 33.1904 30.6904 33.75 30 33.75C29.3096 33.75 28.75 33.1904 28.75 32.5V27.0833H23.3333C22.643 27.0833 22.0833 26.5237 22.0833 25.8333C22.0833 25.143 22.643 24.5833 23.3333 24.5833H28.75V19.1667C28.75 18.4763 29.3096 17.9167 30 17.9167Z" fill="#EFA70C"/>
<path d="M5 12.0833C4.30964 12.0833 3.75 12.643 3.75 13.3333C3.75 14.0237 4.30964 14.5833 5 14.5833L33.3333 14.5833C34.0237 14.5833 34.5833 14.0237 34.5833 13.3333C34.5833 12.643 34.0237 12.0833 33.3333 12.0833L5 12.0833Z" fill="#4798D9"/>
<path d="M3.75 21.6667C3.75 20.9763 4.30964 20.4167 5 20.4167H20C20.6904 20.4167 21.25 20.9763 21.25 21.6667C21.25 22.357 20.6904 22.9167 20 22.9167H5C4.30964 22.9167 3.75 22.357 3.75 21.6667Z" fill="#4798D9"/>
<path d="M5 28.75C4.30964 28.75 3.75 29.3097 3.75 30C3.75 30.6904 4.30964 31.25 5 31.25H20C20.6904 31.25 21.25 30.6904 21.25 30C21.25 29.3097 20.6904 28.75 20 28.75H5Z" fill="#4798D9"/>
</svg>
