<svg width="29" height="23" viewBox="0 0 29 23" fill="none" xmlns="http://www.w3.org/2000/svg">
<rect x="0.5" y="0.5" width="23" height="19" rx="3.5" fill="#FF9000" stroke="#083979"/>
<path d="M16.9576 11.6945L15.0405 20.0867L19.8507 14.3102L19.833 14.023L19.8504 13.7737L19.9325 13.5956L20.0639 13.4385L20.3352 13.3195L20.5881 13.2797L20.8058 13.3619L21.1076 13.6063L21.1816 13.8261L21.1518 14.056L21.0831 14.2638L20.9142 14.4658L20.7343 14.5553L20.539 14.5947L20.3766 14.5949L20.1696 14.5684L15.348 20.3357L19.4338 18.6579L23.3745 16.8909L23.853 16.3187L24.6304 11.7454L21.7208 9.38925L17.436 11.1223L16.9576 11.6945Z" fill="#083979"/>
<path d="M22.0699 9.31439L22.1232 9.05648L23.3661 7.56977L23.5801 7.5079L26.2278 9.65194L26.2927 9.93975L25.0498 11.4265L24.8086 11.5322L22.0699 9.31439Z" fill="#083979"/>
<path d="M16.9576 11.6945L15.0405 20.0867L19.8507 14.3102L19.833 14.023L19.8504 13.7737L19.9325 13.5956L20.0639 13.4385L20.3352 13.3195L20.5881 13.2797L20.8058 13.3619L21.1076 13.6063L21.1816 13.8261L21.1518 14.056L21.0831 14.2638L20.9142 14.4658L20.7343 14.5553L20.539 14.5947L20.3766 14.5949L20.1696 14.5684L15.348 20.3357L19.4338 18.6579L23.3745 16.8909L23.853 16.3187L24.6304 11.7454L21.7208 9.38925L17.436 11.1223L16.9576 11.6945Z" stroke="white" stroke-width="0.3"/>
<path d="M22.0699 9.31439L22.1232 9.05648L23.3661 7.56977L23.5801 7.5079L26.2278 9.65194L26.2927 9.93975L25.0498 11.4265L24.8086 11.5322L22.0699 9.31439Z" stroke="white" stroke-width="0.3"/>
<rect x="3" y="3" width="18" height="2" rx="1" fill="#083979"/>
<rect x="3" y="7" width="18" height="2" rx="1" fill="#083979"/>
<rect x="3" y="15" width="10" height="2" rx="1" fill="#083979"/>
<rect x="3" y="11" width="10" height="2" rx="1" fill="#083979"/>
</svg>
