<svg width="24" height="23" viewBox="0 0 24 23" fill="none" xmlns="http://www.w3.org/2000/svg">
<rect x="-0.5" y="0.5" width="15.7571" height="2.48234" rx="1.24117" transform="matrix(-1 0 0 1 19.1084 19.397)" fill="#FF9000" stroke="#083979"/>
<rect x="0.5" y="-0.5" width="22.8789" height="15.4862" rx="4.5" transform="matrix(1 0 0 -1 0 16.4644)" fill="#FF9000" stroke="#083979"/>
<rect width="10.5511" height="1.97834" transform="matrix(-1 0 0 1 17.2148 17.4644)" fill="#083979"/>
<mask id="path-4-inside-1_432_6" fill="white">
<path d="M8 0H16C16 0.390524 16 0.609476 16 1H8V0Z"/>
</mask>
<path d="M8 0V-1H7V0H8ZM16 0H17V-1H16V0ZM16 1V2H17V1H16ZM8 1H7V2H8V1ZM8 0V1H16V0V-1H8V0ZM16 0H15C15 0.000762743 15 0.00152483 15 0.00228627C15 0.0030477 15 0.00380849 15 0.00456862C15 0.00532876 15 0.00608824 15 0.00684708C15 0.00760592 15 0.00836411 15 0.00912166C15 0.00987921 15 0.0106361 15 0.0113924C15 0.0121486 15 0.0129043 15 0.0136592C15 0.0144142 15 0.0151686 15 0.0159223C15 0.016676 15 0.017429 15 0.0181815C15 0.0189339 15 0.0196857 15 0.0204369C15 0.021188 15 0.0219386 15 0.0226885C15 0.0234384 15 0.0241877 15 0.0249363C15 0.025685 15 0.026433 15 0.0271804C15 0.0279278 15 0.0286746 15 0.0294208C15 0.0301669 15 0.0309125 15 0.0316574C15 0.0324023 15 0.0331466 15 0.0338903C15 0.034634 15 0.035377 15 0.0361195C15 0.0368619 15 0.0376038 15 0.038345C15 0.0390862 15 0.0398268 15 0.0405668C15 0.0413069 15 0.0420463 15 0.0427851C15 0.0435238 15 0.044262 15 0.0449996C15 0.0457372 15 0.0464742 15 0.0472106C15 0.047947 15 0.0486827 15 0.0494179C15 0.0501531 15 0.0508877 15 0.0516217C15 0.0523557 15 0.0530891 15 0.0538219C15 0.0545547 15 0.0552869 15 0.0560185C15 0.0567501 15 0.0574811 15 0.0582116C15 0.058942 15 0.0596718 15 0.0604011C15 0.0611304 15 0.061859 15 0.0625871C15 0.0633152 15 0.0640427 15 0.0647697C15 0.0654966 15 0.066223 15 0.0669487C15 0.0676745 15 0.0683997 15 0.0691243C15 0.0698489 15 0.070573 15 0.0712965C15 0.0720199 15 0.0727428 15 0.0734652C15 0.0741875 15 0.0749093 15 0.0756305C15 0.0763516 15 0.0770723 15 0.0777923C15 0.0785124 15 0.0792319 15 0.0799508C15 0.0806697 15 0.0813881 15 0.0821059C15 0.0828237 15 0.083541 15 0.0842577C15 0.0849744 15 0.0856905 15 0.0864061C15 0.0871217 15 0.0878367 15 0.0885512C15 0.0892656 15 0.0899796 15 0.0906929C15 0.0914063 15 0.0921191 15 0.0928314C15 0.0935437 15 0.0942554 15 0.0949666C15 0.0956778 15 0.0963884 15 0.0970985C15 0.0978086 15 0.0985182 15 0.0992272C15 0.0999362 15 0.100645 15 0.101353C15 0.102061 15 0.102768 15 0.103475C15 0.104182 15 0.104888 15 0.105594C15 0.1063 15 0.107005 15 0.10771C15 0.108414 15 0.109119 15 0.109822C15 0.110526 15 0.111229 15 0.111932C15 0.112634 15 0.113336 15 0.114038C15 0.11474 15 0.115441 15 0.116141C15 0.116842 15 0.117542 15 0.118241C15 0.118941 15 0.11964 15 0.120338C15 0.121037 15 0.121735 15 0.122432C15 0.12313 15 0.123827 15 0.124523C15 0.12522 15 0.125915 15 0.126611C15 0.127306 15 0.128001 15 0.128696C15 0.12939 15 0.130084 15 0.130777C15 0.131471 15 0.132164 15 0.132856C15 0.133548 15 0.13424 15 0.134932C15 0.135623 15 0.136314 15 0.137005C15 0.137695 15 0.138385 15 0.139074C15 0.139764 15 0.140453 15 0.141141C15 0.14183 15 0.142518 15 0.143205C15 0.143893 15 0.14458 15 0.145266C15 0.145953 15 0.146639 15 0.147324C15 0.14801 15 0.148695 15 0.149379C15 0.150064 15 0.150748 15 0.151432C15 0.152115 15 0.152799 15 0.153481C15 0.154164 15 0.154846 15 0.155528C15 0.15621 15 0.156891 15 0.157572C15 0.158253 15 0.158933 15 0.159613C15 0.160293 15 0.160972 15 0.161651C15 0.16233 15 0.163008 15 0.163687C15 0.164365 15 0.165042 15 0.165719C15 0.166396 15 0.167073 15 0.167749C15 0.168425 15 0.169101 15 0.169776C15 0.170452 15 0.171127 15 0.171801C15 0.172475 15 0.173149 15 0.173823C15 0.174496 15 0.175169 15 0.175842C15 0.176514 15 0.177187 15 0.177858C15 0.17853 15 0.179201 15 0.179872C15 0.180543 15 0.181213 15 0.181883C15 0.182553 15 0.183223 15 0.183892C15 0.184561 15 0.18523 15 0.185898C15 0.186566 15 0.187234 15 0.187901C15 0.188568 15 0.189235 15 0.189902C15 0.190568 15 0.191234 15 0.1919C15 0.192566 15 0.193231 15 0.193896C15 0.19456 15 0.195225 15 0.195889C15 0.196553 15 0.197216 15 0.197879C15 0.198543 15 0.199205 15 0.199868C15 0.20053 15 0.201192 15 0.201853C15 0.202515 15 0.203176 15 0.203836C15 0.204497 15 0.205157 15 0.205817C15 0.206477 15 0.207136 15 0.207795C15 0.208454 15 0.209113 15 0.209771C15 0.210429 15 0.211087 15 0.211745C15 0.212402 15 0.213059 15 0.213716C15 0.214372 15 0.215028 15 0.215684C15 0.21634 15 0.216995 15 0.21765C15 0.218306 15 0.21896 15 0.219614C15 0.220269 15 0.220923 15 0.221576C15 0.22223 15 0.222883 15 0.223535C15 0.224188 15 0.22484 15 0.225492C15 0.226144 15 0.226796 15 0.227447C15 0.228098 15 0.228749 15 0.2294C15 0.23005 15 0.2307 15 0.23135C15 0.231999 15 0.232649 15 0.233298C15 0.233947 15 0.234595 15 0.235243C15 0.235892 15 0.236539 15 0.237187C15 0.237834 15 0.238481 15 0.239128C15 0.239775 15 0.240421 15 0.241067C15 0.241713 15 0.242359 15 0.243004C15 0.24365 15 0.244295 15 0.244939C15 0.245584 15 0.246228 15 0.246872C15 0.247516 15 0.248159 15 0.248802C15 0.249446 15 0.250088 15 0.250731C15 0.251373 15 0.252016 15 0.252657C15 0.253299 15 0.253941 15 0.254582C15 0.255223 15 0.255863 15 0.256504C15 0.257144 15 0.257784 15 0.258424C15 0.259064 15 0.259703 15 0.260342C15 0.260981 15 0.26162 15 0.262259C15 0.262897 15 0.263535 15 0.264173C15 0.26481 15 0.265448 15 0.266085C15 0.266722 15 0.267359 15 0.267995C15 0.268632 15 0.269268 15 0.269904C15 0.270539 15 0.271175 15 0.27181C15 0.272445 15 0.27308 15 0.273714C15 0.274349 15 0.274983 15 0.275617C15 0.276251 15 0.276884 15 0.277518C15 0.278151 15 0.278784 15 0.279416C15 0.280049 15 0.280681 15 0.281313C15 0.281945 15 0.282577 15 0.283208C15 0.28384 15 0.284471 15 0.285102C15 0.285733 15 0.286363 15 0.286993C15 0.287623 15 0.288253 15 0.288883C15 0.289512 15 0.290142 15 0.290771C15 0.2914 15 0.292028 15 0.292657C15 0.293285 15 0.293913 15 0.294541C15 0.295169 15 0.295797 15 0.296424C15 0.297051 15 0.297678 15 0.298305C15 0.298932 15 0.299558 15 0.300184C15 0.30081 15 0.301436 15 0.302062C15 0.302687 15 0.303312 15 0.303937C15 0.304562 15 0.305187 15 0.305812C15 0.306436 15 0.30706 15 0.307684C15 0.308308 15 0.308932 15 0.309555C15 0.310179 15 0.310802 15 0.311425C15 0.312047 15 0.31267 15 0.313292C15 0.313915 15 0.314537 15 0.315158C15 0.31578 15 0.316402 15 0.317023C15 0.317644 15 0.318265 15 0.318886C15 0.319507 15 0.320127 15 0.320748C15 0.321368 15 0.321988 15 0.322608C15 0.323227 15 0.323847 15 0.324466C15 0.325085 15 0.325704 15 0.326323C15 0.326942 15 0.32756 15 0.328179C15 0.328797 15 0.329415 15 0.330033C15 0.33065 15 0.331268 15 0.331885C15 0.332503 15 0.33312 15 0.333736C15 0.334353 15 0.33497 15 0.335586C15 0.336203 15 0.336819 15 0.337435C15 0.338051 15 0.338666 15 0.339282C15 0.339897 15 0.340512 15 0.341127C15 0.341742 15 0.342357 15 0.342972C15 0.343586 15 0.3442 15 0.344815C15 0.345429 15 0.346043 15 0.346656C15 0.34727 15 0.347883 15 0.348497C15 0.34911 15 0.349723 15 0.350336C15 0.350948 15 0.351561 15 0.352173C15 0.352786 15 0.353398 15 0.35401C15 0.354622 15 0.355234 15 0.355845C15 0.356457 15 0.357068 15 0.357679C15 0.35829 15 0.358901 15 0.359512C15 0.360123 15 0.360733 15 0.361344C15 0.361954 15 0.362564 15 0.363174C15 0.363784 15 0.364394 15 0.365003C15 0.365613 15 0.366222 15 0.366832C15 0.367441 15 0.36805 15 0.368659C15 0.369267 15 0.369876 15 0.370484C15 0.371093 15 0.371701 15 0.372309C15 0.372917 15 0.373525 15 0.374133C15 0.374741 15 0.375348 15 0.375956C15 0.376563 15 0.37717 15 0.377777C15 0.378384 15 0.378991 15 0.379598C15 0.380204 15 0.380811 15 0.381417C15 0.382023 15 0.38263 15 0.383236C15 0.383842 15 0.384447 15 0.385053C15 0.385659 15 0.386264 15 0.38687C15 0.387475 15 0.38808 15 0.388685C15 0.38929 15 0.389895 15 0.3905C15 0.391104 15 0.391709 15 0.392313C15 0.392918 15 0.393522 15 0.394126C15 0.39473 15 0.395334 15 0.395938C15 0.396542 15 0.397145 15 0.397749C15 0.398352 15 0.398956 15 0.399559C15 0.400162 15 0.400765 15 0.401368C15 0.401971 15 0.402574 15 0.403176C15 0.403779 15 0.404382 15 0.404984C15 0.405586 15 0.406189 15 0.406791C15 0.407393 15 0.407995 15 0.408597C15 0.409198 15 0.4098 15 0.410402C15 0.411003 15 0.411605 15 0.412206C15 0.412807 15 0.413409 15 0.41401C15 0.414611 15 0.415212 15 0.415813C15 0.416413 15 0.417014 15 0.417615C15 0.418215 15 0.418816 15 0.419416C15 0.420017 15 0.420617 15 0.421217C15 0.421817 15 0.422417 15 0.423017C15 0.423617 15 0.424217 15 0.424816C15 0.425416 15 0.426016 15 0.426615C15 0.427215 15 0.427814 15 0.428413C15 0.429013 15 0.429612 15 0.430211C15 0.43081 15 0.431409 15 0.432008C15 0.432607 15 0.433206 15 0.433804C15 0.434403 15 0.435002 15 0.4356C15 0.436199 15 0.436797 15 0.437395C15 0.437994 15 0.438592 15 0.43919C15 0.439788 15 0.440386 15 0.440984C15 0.441582 15 0.44218 15 0.442778C15 0.443376 15 0.443973 15 0.444571C15 0.445169 15 0.445766 15 0.446364C15 0.446961 15 0.447559 15 0.448156C15 0.448753 15 0.449351 15 0.449948C15 0.450545 15 0.451142 15 0.451739C15 0.452336 15 0.452933 15 0.45353C15 0.454127 15 0.454724 15 0.455321C15 0.455917 15 0.456514 15 0.457111C15 0.457708 15 0.458304 15 0.458901C15 0.459497 15 0.460094 15 0.46069C15 0.461287 15 0.461883 15 0.462479C15 0.463076 15 0.463672 15 0.464268C15 0.464864 15 0.46546 15 0.466057C15 0.466653 15 0.467249 15 0.467845C15 0.468441 15 0.469037 15 0.469633C15 0.470229 15 0.470824 15 0.47142C15 0.472016 15 0.472612 15 0.473208C15 0.473804 15 0.474399 15 0.474995C15 0.475591 15 0.476186 15 0.476782C15 0.477378 15 0.477973 15 0.478569C15 0.479164 15 0.47976 15 0.480355C15 0.480951 15 0.481546 15 0.482142C15 0.482737 15 0.483333 15 0.483928C15 0.484523 15 0.485119 15 0.485714C15 0.486309 15 0.486905 15 0.4875C15 0.488095 15 0.488691 15 0.489286C15 0.489881 15 0.490477 15 0.491072C15 0.491667 15 0.492262 15 0.492858C15 0.493453 15 0.494048 15 0.494643C15 0.495238 15 0.495834 15 0.496429C15 0.497024 15 0.497619 15 0.498214C15 0.49881 15 0.499405 15 0.5C15 0.500595 15 0.50119 15 0.501786C15 0.502381 15 0.502976 15 0.503571C15 0.504166 15 0.504762 15 0.505357C15 0.505952 15 0.506547 15 0.507142C15 0.507738 15 0.508333 15 0.508928C15 0.509523 15 0.510119 15 0.510714C15 0.511309 15 0.511905 15 0.5125C15 0.513095 15 0.513691 15 0.514286C15 0.514881 15 0.515477 15 0.516072C15 0.516667 15 0.517263 15 0.517858C15 0.518454 15 0.519049 15 0.519645C15 0.52024 15 0.520836 15 0.521431C15 0.522027 15 0.522622 15 0.523218C15 0.523814 15 0.524409 15 0.525005C15 0.525601 15 0.526196 15 0.526792C15 0.527388 15 0.527984 15 0.52858C15 0.529175 15 0.529771 15 0.530367C15 0.530963 15 0.531559 15 0.532155C15 0.532751 15 0.533347 15 0.533943C15 0.53454 15 0.535136 15 0.535732C15 0.536328 15 0.536924 15 0.537521C15 0.538117 15 0.538713 15 0.53931C15 0.539906 15 0.540503 15 0.541099C15 0.541696 15 0.542292 15 0.542889C15 0.543486 15 0.544082 15 0.544679C15 0.545276 15 0.545873 15 0.54647C15 0.547067 15 0.547664 15 0.548261C15 0.548858 15 0.549455 15 0.550052C15 0.550649 15 0.551247 15 0.551844C15 0.552441 15 0.553039 15 0.553636C15 0.554234 15 0.554831 15 0.555429C15 0.556027 15 0.556624 15 0.557222C15 0.55782 15 0.558418 15 0.559016C15 0.559614 15 0.560212 15 0.56081C15 0.561408 15 0.562006 15 0.562605C15 0.563203 15 0.563801 15 0.5644C15 0.564998 15 0.565597 15 0.566196C15 0.566794 15 0.567393 15 0.567992C15 0.568591 15 0.56919 15 0.569789C15 0.570388 15 0.570987 15 0.571587C15 0.572186 15 0.572785 15 0.573385C15 0.573984 15 0.574584 15 0.575183C15 0.575783 15 0.576383 15 0.576983C15 0.577583 15 0.578183 15 0.578783C15 0.579383 15 0.579983 15 0.580584C15 0.581184 15 0.581785 15 0.582385C15 0.582986 15 0.583587 15 0.584187C15 0.584788 15 0.585389 15 0.58599C15 0.586591 15 0.587193 15 0.587794C15 0.588395 15 0.588997 15 0.589598C15 0.5902 15 0.590802 15 0.591403C15 0.592005 15 0.592607 15 0.593209C15 0.593811 15 0.594414 15 0.595016C15 0.595618 15 0.596221 15 0.596824C15 0.597426 15 0.598029 15 0.598632C15 0.599235 15 0.599838 15 0.600441C15 0.601044 15 0.601648 15 0.602251C15 0.602855 15 0.603458 15 0.604062C15 0.604666 15 0.60527 15 0.605874C15 0.606478 15 0.607082 15 0.607687C15 0.608291 15 0.608896 15 0.6095C15 0.610105 15 0.61071 15 0.611315C15 0.61192 15 0.612525 15 0.61313C15 0.613736 15 0.614341 15 0.614947C15 0.615553 15 0.616158 15 0.616764C15 0.61737 15 0.617977 15 0.618583C15 0.619189 15 0.619796 15 0.620402C15 0.621009 15 0.621616 15 0.622223C15 0.62283 15 0.623437 15 0.624044C15 0.624652 15 0.625259 15 0.625867C15 0.626475 15 0.627083 15 0.627691C15 0.628299 15 0.628907 15 0.629516C15 0.630124 15 0.630733 15 0.631341C15 0.63195 15 0.632559 15 0.633168C15 0.633778 15 0.634387 15 0.634997C15 0.635606 15 0.636216 15 0.636826C15 0.637436 15 0.638046 15 0.638656C15 0.639267 15 0.639877 15 0.640488C15 0.641099 15 0.64171 15 0.642321C15 0.642932 15 0.643543 15 0.644155C15 0.644766 15 0.645378 15 0.64599C15 0.646602 15 0.647214 15 0.647827C15 0.648439 15 0.649052 15 0.649664C15 0.650277 15 0.65089 15 0.651503C15 0.652117 15 0.65273 15 0.653344C15 0.653957 15 0.654571 15 0.655185C15 0.6558 15 0.656414 15 0.657028C15 0.657643 15 0.658258 15 0.658873C15 0.659488 15 0.660103 15 0.660718C15 0.661334 15 0.661949 15 0.662565C15 0.663181 15 0.663797 15 0.664414C15 0.66503 15 0.665647 15 0.666264C15 0.66688 15 0.667497 15 0.668115C15 0.668732 15 0.66935 15 0.669967C15 0.670585 15 0.671203 15 0.671821C15 0.67244 15 0.673058 15 0.673677C15 0.674296 15 0.674915 15 0.675534C15 0.676153 15 0.676773 15 0.677392C15 0.678012 15 0.678632 15 0.679252C15 0.679873 15 0.680493 15 0.681114C15 0.681735 15 0.682356 15 0.682977C15 0.683598 15 0.68422 15 0.684842C15 0.685463 15 0.686085 15 0.686708C15 0.68733 15 0.687953 15 0.688575C15 0.689198 15 0.689821 15 0.690445C15 0.691068 15 0.691692 15 0.692316C15 0.69294 15 0.693564 15 0.694188C15 0.694813 15 0.695438 15 0.696063C15 0.696688 15 0.697313 15 0.697938C15 0.698564 15 0.69919 15 0.699816C15 0.700442 15 0.701068 15 0.701695C15 0.702322 15 0.702949 15 0.703576C15 0.704203 15 0.704831 15 0.705459C15 0.706087 15 0.706715 15 0.707343C15 0.707972 15 0.7086 15 0.709229C15 0.709858 15 0.710488 15 0.711117C15 0.711747 15 0.712377 15 0.713007C15 0.713637 15 0.714267 15 0.714898C15 0.715529 15 0.71616 15 0.716792C15 0.717423 15 0.718055 15 0.718687C15 0.719319 15 0.719951 15 0.720584C15 0.721216 15 0.721849 15 0.722482C15 0.723116 15 0.723749 15 0.724383C15 0.725017 15 0.725651 15 0.726286C15 0.72692 15 0.727555 15 0.72819C15 0.728825 15 0.729461 15 0.730096C15 0.730732 15 0.731368 15 0.732005C15 0.732641 15 0.733278 15 0.733915C15 0.734552 15 0.735189 15 0.735827C15 0.736465 15 0.737103 15 0.737741C15 0.73838 15 0.739019 15 0.739658C15 0.740297 15 0.740936 15 0.741576C15 0.742216 15 0.742856 15 0.743496C15 0.744136 15 0.744777 15 0.745418C15 0.746059 15 0.746701 15 0.747343C15 0.747984 15 0.748627 15 0.749269C15 0.749912 15 0.750554 15 0.751198C15 0.751841 15 0.752484 15 0.753128C15 0.753772 15 0.754416 15 0.755061C15 0.755705 15 0.75635 15 0.756996C15 0.757641 15 0.758287 15 0.758933C15 0.759579 15 0.760225 15 0.760872C15 0.761519 15 0.762166 15 0.762813C15 0.763461 15 0.764108 15 0.764757C15 0.765405 15 0.766053 15 0.766702C15 0.767351 15 0.768001 15 0.76865C15 0.7693 15 0.76995 15 0.7706C15 0.771251 15 0.771902 15 0.772553C15 0.773204 15 0.773856 15 0.774508C15 0.77516 15 0.775812 15 0.776465C15 0.777117 15 0.77777 15 0.778424C15 0.779077 15 0.779731 15 0.780386C15 0.78104 15 0.781694 15 0.782349C15 0.783005 15 0.78366 15 0.784316C15 0.784972 15 0.785628 15 0.786284C15 0.786941 15 0.787598 15 0.788255C15 0.788913 15 0.789571 15 0.790229C15 0.790887 15 0.791546 15 0.792205C15 0.792864 15 0.793523 15 0.794183C15 0.794843 15 0.795503 15 0.796164C15 0.796824 15 0.797485 15 0.798147C15 0.798808 15 0.79947 15 0.800132C15 0.800795 15 0.801457 15 0.802121C15 0.802784 15 0.803447 15 0.804111C15 0.804775 15 0.80544 15 0.806104C15 0.806769 15 0.807434 15 0.8081C15 0.808766 15 0.809432 15 0.810098C15 0.810765 15 0.811432 15 0.812099C15 0.812766 15 0.813434 15 0.814102C15 0.81477 15 0.815439 15 0.816108C15 0.816777 15 0.817447 15 0.818117C15 0.818787 15 0.819457 15 0.820128C15 0.820799 15 0.82147 15 0.822142C15 0.822813 15 0.823486 15 0.824158C15 0.824831 15 0.825504 15 0.826177C15 0.826851 15 0.827525 15 0.828199C15 0.828873 15 0.829548 15 0.830224C15 0.830899 15 0.831575 15 0.832251C15 0.832927 15 0.833604 15 0.834281C15 0.834958 15 0.835635 15 0.836313C15 0.836991 15 0.83767 15 0.838349C15 0.839028 15 0.839707 15 0.840387C15 0.841067 15 0.841747 15 0.842428C15 0.843109 15 0.84379 15 0.844472C15 0.845154 15 0.845836 15 0.846519C15 0.847201 15 0.847885 15 0.848568C15 0.849252 15 0.849936 15 0.850621C15 0.851305 15 0.85199 15 0.852676C15 0.853361 15 0.854047 15 0.854734C15 0.85542 15 0.856107 15 0.856795C15 0.857482 15 0.85817 15 0.858859C15 0.859547 15 0.860236 15 0.860926C15 0.861615 15 0.862305 15 0.862995C15 0.863686 15 0.864377 15 0.865068C15 0.86576 15 0.866451 15 0.867144C15 0.867836 15 0.868529 15 0.869223C15 0.869916 15 0.87061 15 0.871304C15 0.871999 15 0.872694 15 0.873389C15 0.874085 15 0.87478 15 0.875477C15 0.876173 15 0.87687 15 0.877568C15 0.878265 15 0.878963 15 0.879662C15 0.88036 15 0.881059 15 0.881759C15 0.882458 15 0.883158 15 0.883859C15 0.884559 15 0.88526 15 0.885962C15 0.886663 15 0.887366 15 0.888068C15 0.888771 15 0.889474 15 0.890178C15 0.890881 15 0.891586 15 0.89229C15 0.892995 15 0.8937 15 0.894406C15 0.895112 15 0.895818 15 0.896525C15 0.897232 15 0.897939 15 0.898647C15 0.899355 15 0.900064 15 0.900773C15 0.901482 15 0.902191 15 0.902901C15 0.903612 15 0.904322 15 0.905033C15 0.905745 15 0.906456 15 0.907169C15 0.907881 15 0.908594 15 0.909307C15 0.91002 15 0.910734 15 0.911449C15 0.912163 15 0.912878 15 0.913594C15 0.914309 15 0.915026 15 0.915742C15 0.916459 15 0.917176 15 0.917894C15 0.918612 15 0.91933 15 0.920049C15 0.920768 15 0.921488 15 0.922208C15 0.922928 15 0.923648 15 0.92437C15 0.925091 15 0.925812 15 0.926535C15 0.927257 15 0.92798 15 0.928704C15 0.929427 15 0.930151 15 0.930876C15 0.9316 15 0.932325 15 0.933051C15 0.933777 15 0.934503 15 0.93523C15 0.935957 15 0.936685 15 0.937413C15 0.938141 15 0.93887 15 0.939599C15 0.940328 15 0.941058 15 0.941788C15 0.942519 15 0.94325 15 0.943982C15 0.944713 15 0.945445 15 0.946178C15 0.946911 15 0.947644 15 0.948378C15 0.949112 15 0.949847 15 0.950582C15 0.951317 15 0.952053 15 0.952789C15 0.953526 15 0.954263 15 0.955C15 0.955738 15 0.956476 15 0.957215C15 0.957954 15 0.958693 15 0.959433C15 0.960173 15 0.960914 15 0.961655C15 0.962396 15 0.963138 15 0.963881C15 0.964623 15 0.965366 15 0.96611C15 0.966853 15 0.967598 15 0.968343C15 0.969088 15 0.969833 15 0.970579C15 0.971325 15 0.972072 15 0.97282C15 0.973567 15 0.974315 15 0.975064C15 0.975812 15 0.976562 15 0.977311C15 0.978061 15 0.978812 15 0.979563C15 0.980314 15 0.981066 15 0.981819C15 0.982571 15 0.983324 15 0.984078C15 0.984831 15 0.985586 15 0.986341C15 0.987096 15 0.987851 15 0.988608C15 0.989364 15 0.990121 15 0.990878C15 0.991636 15 0.992394 15 0.993153C15 0.993912 15 0.994671 15 0.995431C15 0.996191 15 0.996952 15 0.997714C15 0.998475 15 0.999237 15 1H16H17C17 0.999237 17 0.998475 17 0.997714C17 0.996952 17 0.996191 17 0.995431C17 0.994671 17 0.993912 17 0.993153C17 0.992394 17 0.991636 17 0.990878C17 0.990121 17 0.989364 17 0.988608C17 0.987851 17 0.987096 17 0.986341C17 0.985586 17 0.984831 17 0.984078C17 0.983324 17 0.982571 17 0.981819C17 0.981066 17 0.980314 17 0.979563C17 0.978812 17 0.978061 17 0.977311C17 0.976562 17 0.975812 17 0.975064C17 0.974315 17 0.973567 17 0.97282C17 0.972072 17 0.971325 17 0.970579C17 0.969833 17 0.969088 17 0.968343C17 0.967598 17 0.966853 17 0.96611C17 0.965366 17 0.964623 17 0.963881C17 0.963138 17 0.962396 17 0.961655C17 0.960914 17 0.960173 17 0.959433C17 0.958693 17 0.957954 17 0.957215C17 0.956476 17 0.955738 17 0.955C17 0.954263 17 0.953526 17 0.952789C17 0.952053 17 0.951317 17 0.950582C17 0.949847 17 0.949112 17 0.948378C17 0.947644 17 0.946911 17 0.946178C17 0.945445 17 0.944713 17 0.943982C17 0.94325 17 0.942519 17 0.941788C17 0.941058 17 0.940328 17 0.939599C17 0.93887 17 0.938141 17 0.937413C17 0.936685 17 0.935957 17 0.93523C17 0.934503 17 0.933777 17 0.933051C17 0.932325 17 0.9316 17 0.930876C17 0.930151 17 0.929427 17 0.928704C17 0.92798 17 0.927257 17 0.926535C17 0.925812 17 0.925091 17 0.92437C17 0.923648 17 0.922928 17 0.922208C17 0.921488 17 0.920768 17 0.920049C17 0.91933 17 0.918612 17 0.917894C17 0.917176 17 0.916459 17 0.915742C17 0.915026 17 0.914309 17 0.913594C17 0.912878 17 0.912163 17 0.911449C17 0.910734 17 0.91002 17 0.909307C17 0.908594 17 0.907881 17 0.907169C17 0.906456 17 0.905745 17 0.905033C17 0.904322 17 0.903612 17 0.902901C17 0.902191 17 0.901482 17 0.900773C17 0.900064 17 0.899355 17 0.898647C17 0.897939 17 0.897232 17 0.896525C17 0.895818 17 0.895112 17 0.894406C17 0.8937 17 0.892995 17 0.89229C17 0.891586 17 0.890881 17 0.890178C17 0.889474 17 0.888771 17 0.888068C17 0.887366 17 0.886663 17 0.885962C17 0.88526 17 0.884559 17 0.883859C17 0.883158 17 0.882458 17 0.881759C17 0.881059 17 0.88036 17 0.879662C17 0.878963 17 0.878265 17 0.877568C17 0.87687 17 0.876173 17 0.875477C17 0.87478 17 0.874085 17 0.873389C17 0.872694 17 0.871999 17 0.871304C17 0.87061 17 0.869916 17 0.869223C17 0.868529 17 0.867836 17 0.867144C17 0.866451 17 0.86576 17 0.865068C17 0.864377 17 0.863686 17 0.862995C17 0.862305 17 0.861615 17 0.860926C17 0.860236 17 0.859547 17 0.858859C17 0.85817 17 0.857482 17 0.856795C17 0.856107 17 0.85542 17 0.854734C17 0.854047 17 0.853361 17 0.852676C17 0.85199 17 0.851305 17 0.850621C17 0.849936 17 0.849252 17 0.848568C17 0.847885 17 0.847201 17 0.846519C17 0.845836 17 0.845154 17 0.844472C17 0.84379 17 0.843109 17 0.842428C17 0.841747 17 0.841067 17 0.840387C17 0.839707 17 0.839028 17 0.838349C17 0.83767 17 0.836991 17 0.836313C17 0.835635 17 0.834958 17 0.834281C17 0.833604 17 0.832927 17 0.832251C17 0.831575 17 0.830899 17 0.830224C17 0.829548 17 0.828873 17 0.828199C17 0.827525 17 0.826851 17 0.826177C17 0.825504 17 0.824831 17 0.824158C17 0.823486 17 0.822813 17 0.822142C17 0.82147 17 0.820799 17 0.820128C17 0.819457 17 0.818787 17 0.818117C17 0.817447 17 0.816777 17 0.816108C17 0.815439 17 0.81477 17 0.814102C17 0.813434 17 0.812766 17 0.812099C17 0.811432 17 0.810765 17 0.810098C17 0.809432 17 0.808766 17 0.8081C17 0.807434 17 0.806769 17 0.806104C17 0.80544 17 0.804775 17 0.804111C17 0.803447 17 0.802784 17 0.802121C17 0.801457 17 0.800795 17 0.800132C17 0.79947 17 0.798808 17 0.798147C17 0.797485 17 0.796824 17 0.796164C17 0.795503 17 0.794843 17 0.794183C17 0.793523 17 0.792864 17 0.792205C17 0.791546 17 0.790887 17 0.790229C17 0.789571 17 0.788913 17 0.788255C17 0.787598 17 0.786941 17 0.786284C17 0.785628 17 0.784972 17 0.784316C17 0.78366 17 0.783005 17 0.782349C17 0.781694 17 0.78104 17 0.780386C17 0.779731 17 0.779077 17 0.778424C17 0.77777 17 0.777117 17 0.776465C17 0.775812 17 0.77516 17 0.774508C17 0.773856 17 0.773204 17 0.772553C17 0.771902 17 0.771251 17 0.7706C17 0.76995 17 0.7693 17 0.76865C17 0.768001 17 0.767351 17 0.766702C17 0.766053 17 0.765405 17 0.764757C17 0.764108 17 0.763461 17 0.762813C17 0.762166 17 0.761519 17 0.760872C17 0.760225 17 0.759579 17 0.758933C17 0.758287 17 0.757641 17 0.756996C17 0.75635 17 0.755705 17 0.755061C17 0.754416 17 0.753772 17 0.753128C17 0.752484 17 0.751841 17 0.751198C17 0.750554 17 0.749912 17 0.749269C17 0.748627 17 0.747984 17 0.747343C17 0.746701 17 0.746059 17 0.745418C17 0.744777 17 0.744136 17 0.743496C17 0.742856 17 0.742216 17 0.741576C17 0.740936 17 0.740297 17 0.739658C17 0.739019 17 0.73838 17 0.737741C17 0.737103 17 0.736465 17 0.735827C17 0.735189 17 0.734552 17 0.733915C17 0.733278 17 0.732641 17 0.732005C17 0.731368 17 0.730732 17 0.730096C17 0.729461 17 0.728825 17 0.72819C17 0.727555 17 0.72692 17 0.726286C17 0.725651 17 0.725017 17 0.724383C17 0.723749 17 0.723116 17 0.722482C17 0.721849 17 0.721216 17 0.720584C17 0.719951 17 0.719319 17 0.718687C17 0.718055 17 0.717423 17 0.716792C17 0.71616 17 0.715529 17 0.714898C17 0.714267 17 0.713637 17 0.713007C17 0.712377 17 0.711747 17 0.711117C17 0.710488 17 0.709858 17 0.709229C17 0.7086 17 0.707972 17 0.707343C17 0.706715 17 0.706087 17 0.705459C17 0.704831 17 0.704203 17 0.703576C17 0.702949 17 0.702322 17 0.701695C17 0.701068 17 0.700442 17 0.699816C17 0.69919 17 0.698564 17 0.697938C17 0.697313 17 0.696688 17 0.696063C17 0.695438 17 0.694813 17 0.694188C17 0.693564 17 0.69294 17 0.692316C17 0.691692 17 0.691068 17 0.690445C17 0.689821 17 0.689198 17 0.688575C17 0.687953 17 0.68733 17 0.686708C17 0.686085 17 0.685463 17 0.684842C17 0.68422 17 0.683598 17 0.682977C17 0.682356 17 0.681735 17 0.681114C17 0.680493 17 0.679873 17 0.679252C17 0.678632 17 0.678012 17 0.677392C17 0.676773 17 0.676153 17 0.675534C17 0.674915 17 0.674296 17 0.673677C17 0.673058 17 0.67244 17 0.671821C17 0.671203 17 0.670585 17 0.669967C17 0.66935 17 0.668732 17 0.668115C17 0.667497 17 0.66688 17 0.666264C17 0.665647 17 0.66503 17 0.664414C17 0.663797 17 0.663181 17 0.662565C17 0.661949 17 0.661334 17 0.660718C17 0.660103 17 0.659488 17 0.658873C17 0.658258 17 0.657643 17 0.657028C17 0.656414 17 0.6558 17 0.655185C17 0.654571 17 0.653957 17 0.653344C17 0.65273 17 0.652117 17 0.651503C17 0.65089 17 0.650277 17 0.649664C17 0.649052 17 0.648439 17 0.647827C17 0.647214 17 0.646602 17 0.64599C17 0.645378 17 0.644766 17 0.644155C17 0.643543 17 0.642932 17 0.642321C17 0.64171 17 0.641099 17 0.640488C17 0.639877 17 0.639267 17 0.638656C17 0.638046 17 0.637436 17 0.636826C17 0.636216 17 0.635606 17 0.634997C17 0.634387 17 0.633778 17 0.633168C17 0.632559 17 0.63195 17 0.631341C17 0.630733 17 0.630124 17 0.629516C17 0.628907 17 0.628299 17 0.627691C17 0.627083 17 0.626475 17 0.625867C17 0.625259 17 0.624652 17 0.624044C17 0.623437 17 0.62283 17 0.622223C17 0.621616 17 0.621009 17 0.620402C17 0.619796 17 0.619189 17 0.618583C17 0.617977 17 0.61737 17 0.616764C17 0.616158 17 0.615553 17 0.614947C17 0.614341 17 0.613736 17 0.61313C17 0.612525 17 0.61192 17 0.611315C17 0.61071 17 0.610105 17 0.6095C17 0.608896 17 0.608291 17 0.607687C17 0.607082 17 0.606478 17 0.605874C17 0.60527 17 0.604666 17 0.604062C17 0.603458 17 0.602855 17 0.602251C17 0.601648 17 0.601044 17 0.600441C17 0.599838 17 0.599235 17 0.598632C17 0.598029 17 0.597426 17 0.596824C17 0.596221 17 0.595618 17 0.595016C17 0.594414 17 0.593811 17 0.593209C17 0.592607 17 0.592005 17 0.591403C17 0.590802 17 0.5902 17 0.589598C17 0.588997 17 0.588395 17 0.587794C17 0.587193 17 0.586591 17 0.58599C17 0.585389 17 0.584788 17 0.584187C17 0.583587 17 0.582986 17 0.582385C17 0.581785 17 0.581184 17 0.580584C17 0.579983 17 0.579383 17 0.578783C17 0.578183 17 0.577583 17 0.576983C17 0.576383 17 0.575783 17 0.575183C17 0.574584 17 0.573984 17 0.573385C17 0.572785 17 0.572186 17 0.571587C17 0.570987 17 0.570388 17 0.569789C17 0.56919 17 0.568591 17 0.567992C17 0.567393 17 0.566794 17 0.566196C17 0.565597 17 0.564998 17 0.5644C17 0.563801 17 0.563203 17 0.562605C17 0.562006 17 0.561408 17 0.56081C17 0.560212 17 0.559614 17 0.559016C17 0.558418 17 0.55782 17 0.557222C17 0.556624 17 0.556027 17 0.555429C17 0.554831 17 0.554234 17 0.553636C17 0.553039 17 0.552441 17 0.551844C17 0.551247 17 0.550649 17 0.550052C17 0.549455 17 0.548858 17 0.548261C17 0.547664 17 0.547067 17 0.54647C17 0.545873 17 0.545276 17 0.544679C17 0.544082 17 0.543486 17 0.542889C17 0.542292 17 0.541696 17 0.541099C17 0.540503 17 0.539906 17 0.53931C17 0.538713 17 0.538117 17 0.537521C17 0.536924 17 0.536328 17 0.535732C17 0.535136 17 0.53454 17 0.533943C17 0.533347 17 0.532751 17 0.532155C17 0.531559 17 0.530963 17 0.530367C17 0.529771 17 0.529175 17 0.52858C17 0.527984 17 0.527388 17 0.526792C17 0.526196 17 0.525601 17 0.525005C17 0.524409 17 0.523814 17 0.523218C17 0.522622 17 0.522027 17 0.521431C17 0.520836 17 0.52024 17 0.519645C17 0.519049 17 0.518454 17 0.517858C17 0.517263 17 0.516667 17 0.516072C17 0.515477 17 0.514881 17 0.514286C17 0.513691 17 0.513095 17 0.5125C17 0.511905 17 0.511309 17 0.510714C17 0.510119 17 0.509523 17 0.508928C17 0.508333 17 0.507738 17 0.507142C17 0.506547 17 0.505952 17 0.505357C17 0.504762 17 0.504166 17 0.503571C17 0.502976 17 0.502381 17 0.501786C17 0.50119 17 0.500595 17 0.5C17 0.499405 17 0.49881 17 0.498214C17 0.497619 17 0.497024 17 0.496429C17 0.495834 17 0.495238 17 0.494643C17 0.494048 17 0.493453 17 0.492858C17 0.492262 17 0.491667 17 0.491072C17 0.490477 17 0.489881 17 0.489286C17 0.488691 17 0.488095 17 0.4875C17 0.486905 17 0.486309 17 0.485714C17 0.485119 17 0.484523 17 0.483928C17 0.483333 17 0.482737 17 0.482142C17 0.481546 17 0.480951 17 0.480355C17 0.47976 17 0.479164 17 0.478569C17 0.477973 17 0.477378 17 0.476782C17 0.476186 17 0.475591 17 0.474995C17 0.474399 17 0.473804 17 0.473208C17 0.472612 17 0.472016 17 0.47142C17 0.470824 17 0.470229 17 0.469633C17 0.469037 17 0.468441 17 0.467845C17 0.467249 17 0.466653 17 0.466057C17 0.46546 17 0.464864 17 0.464268C17 0.463672 17 0.463076 17 0.462479C17 0.461883 17 0.461287 17 0.46069C17 0.460094 17 0.459497 17 0.458901C17 0.458304 17 0.457708 17 0.457111C17 0.456514 17 0.455917 17 0.455321C17 0.454724 17 0.454127 17 0.45353C17 0.452933 17 0.452336 17 0.451739C17 0.451142 17 0.450545 17 0.449948C17 0.449351 17 0.448753 17 0.448156C17 0.447559 17 0.446961 17 0.446364C17 0.445766 17 0.445169 17 0.444571C17 0.443973 17 0.443376 17 0.442778C17 0.44218 17 0.441582 17 0.440984C17 0.440386 17 0.439788 17 0.43919C17 0.438592 17 0.437994 17 0.437395C17 0.436797 17 0.436199 17 0.4356C17 0.435002 17 0.434403 17 0.433804C17 0.433206 17 0.432607 17 0.432008C17 0.431409 17 0.43081 17 0.430211C17 0.429612 17 0.429013 17 0.428413C17 0.427814 17 0.427215 17 0.426615C17 0.426016 17 0.425416 17 0.424816C17 0.424217 17 0.423617 17 0.423017C17 0.422417 17 0.421817 17 0.421217C17 0.420617 17 0.420017 17 0.419416C17 0.418816 17 0.418215 17 0.417615C17 0.417014 17 0.416413 17 0.415813C17 0.415212 17 0.414611 17 0.41401C17 0.413409 17 0.412807 17 0.412206C17 0.411605 17 0.411003 17 0.410402C17 0.4098 17 0.409198 17 0.408597C17 0.407995 17 0.407393 17 0.406791C17 0.406189 17 0.405586 17 0.404984C17 0.404382 17 0.403779 17 0.403176C17 0.402574 17 0.401971 17 0.401368C17 0.400765 17 0.400162 17 0.399559C17 0.398956 17 0.398352 17 0.397749C17 0.397145 17 0.396542 17 0.395938C17 0.395334 17 0.39473 17 0.394126C17 0.393522 17 0.392918 17 0.392313C17 0.391709 17 0.391104 17 0.3905C17 0.389895 17 0.38929 17 0.388685C17 0.38808 17 0.387475 17 0.38687C17 0.386264 17 0.385659 17 0.385053C17 0.384447 17 0.383842 17 0.383236C17 0.38263 17 0.382023 17 0.381417C17 0.380811 17 0.380204 17 0.379598C17 0.378991 17 0.378384 17 0.377777C17 0.37717 17 0.376563 17 0.375956C17 0.375348 17 0.374741 17 0.374133C17 0.373525 17 0.372917 17 0.372309C17 0.371701 17 0.371093 17 0.370484C17 0.369876 17 0.369267 17 0.368659C17 0.36805 17 0.367441 17 0.366832C17 0.366222 17 0.365613 17 0.365003C17 0.364394 17 0.363784 17 0.363174C17 0.362564 17 0.361954 17 0.361344C17 0.360733 17 0.360123 17 0.359512C17 0.358901 17 0.35829 17 0.357679C17 0.357068 17 0.356457 17 0.355845C17 0.355234 17 0.354622 17 0.35401C17 0.353398 17 0.352786 17 0.352173C17 0.351561 17 0.350948 17 0.350336C17 0.349723 17 0.34911 17 0.348497C17 0.347883 17 0.34727 17 0.346656C17 0.346043 17 0.345429 17 0.344815C17 0.3442 17 0.343586 17 0.342972C17 0.342357 17 0.341742 17 0.341127C17 0.340512 17 0.339897 17 0.339282C17 0.338666 17 0.338051 17 0.337435C17 0.336819 17 0.336203 17 0.335586C17 0.33497 17 0.334353 17 0.333736C17 0.33312 17 0.332503 17 0.331885C17 0.331268 17 0.33065 17 0.330033C17 0.329415 17 0.328797 17 0.328179C17 0.32756 17 0.326942 17 0.326323C17 0.325704 17 0.325085 17 0.324466C17 0.323847 17 0.323227 17 0.322608C17 0.321988 17 0.321368 17 0.320748C17 0.320127 17 0.319507 17 0.318886C17 0.318265 17 0.317644 17 0.317023C17 0.316402 17 0.31578 17 0.315158C17 0.314537 17 0.313915 17 0.313292C17 0.31267 17 0.312047 17 0.311425C17 0.310802 17 0.310179 17 0.309555C17 0.308932 17 0.308308 17 0.307684C17 0.30706 17 0.306436 17 0.305812C17 0.305187 17 0.304562 17 0.303937C17 0.303312 17 0.302687 17 0.302062C17 0.301436 17 0.30081 17 0.300184C17 0.299558 17 0.298932 17 0.298305C17 0.297678 17 0.297051 17 0.296424C17 0.295797 17 0.295169 17 0.294541C17 0.293913 17 0.293285 17 0.292657C17 0.292028 17 0.2914 17 0.290771C17 0.290142 17 0.289512 17 0.288883C17 0.288253 17 0.287623 17 0.286993C17 0.286363 17 0.285733 17 0.285102C17 0.284471 17 0.28384 17 0.283208C17 0.282577 17 0.281945 17 0.281313C17 0.280681 17 0.280049 17 0.279416C17 0.278784 17 0.278151 17 0.277518C17 0.276884 17 0.276251 17 0.275617C17 0.274983 17 0.274349 17 0.273714C17 0.27308 17 0.272445 17 0.27181C17 0.271175 17 0.270539 17 0.269904C17 0.269268 17 0.268632 17 0.267995C17 0.267359 17 0.266722 17 0.266085C17 0.265448 17 0.26481 17 0.264173C17 0.263535 17 0.262897 17 0.262259C17 0.26162 17 0.260981 17 0.260342C17 0.259703 17 0.259064 17 0.258424C17 0.257784 17 0.257144 17 0.256504C17 0.255863 17 0.255223 17 0.254582C17 0.253941 17 0.253299 17 0.252657C17 0.252016 17 0.251373 17 0.250731C17 0.250088 17 0.249446 17 0.248802C17 0.248159 17 0.247516 17 0.246872C17 0.246228 17 0.245584 17 0.244939C17 0.244295 17 0.24365 17 0.243004C17 0.242359 17 0.241713 17 0.241067C17 0.240421 17 0.239775 17 0.239128C17 0.238481 17 0.237834 17 0.237187C17 0.236539 17 0.235892 17 0.235243C17 0.234595 17 0.233947 17 0.233298C17 0.232649 17 0.231999 17 0.23135C17 0.2307 17 0.23005 17 0.2294C17 0.228749 17 0.228098 17 0.227447C17 0.226796 17 0.226144 17 0.225492C17 0.22484 17 0.224188 17 0.223535C17 0.222883 17 0.22223 17 0.221576C17 0.220923 17 0.220269 17 0.219614C17 0.21896 17 0.218306 17 0.21765C17 0.216995 17 0.21634 17 0.215684C17 0.215028 17 0.214372 17 0.213716C17 0.213059 17 0.212402 17 0.211745C17 0.211087 17 0.210429 17 0.209771C17 0.209113 17 0.208454 17 0.207795C17 0.207136 17 0.206477 17 0.205817C17 0.205157 17 0.204497 17 0.203836C17 0.203176 17 0.202515 17 0.201853C17 0.201192 17 0.20053 17 0.199868C17 0.199205 17 0.198543 17 0.197879C17 0.197216 17 0.196553 17 0.195889C17 0.195225 17 0.19456 17 0.193896C17 0.193231 17 0.192566 17 0.1919C17 0.191234 17 0.190568 17 0.189902C17 0.189235 17 0.188568 17 0.187901C17 0.187234 17 0.186566 17 0.185898C17 0.18523 17 0.184561 17 0.183892C17 0.183223 17 0.182553 17 0.181883C17 0.181213 17 0.180543 17 0.179872C17 0.179201 17 0.17853 17 0.177858C17 0.177187 17 0.176514 17 0.175842C17 0.175169 17 0.174496 17 0.173823C17 0.173149 17 0.172475 17 0.171801C17 0.171127 17 0.170452 17 0.169776C17 0.169101 17 0.168425 17 0.167749C17 0.167073 17 0.166396 17 0.165719C17 0.165042 17 0.164365 17 0.163687C17 0.163008 17 0.16233 17 0.161651C17 0.160972 17 0.160293 17 0.159613C17 0.158933 17 0.158253 17 0.157572C17 0.156891 17 0.15621 17 0.155528C17 0.154846 17 0.154164 17 0.153481C17 0.152799 17 0.152115 17 0.151432C17 0.150748 17 0.150064 17 0.149379C17 0.148695 17 0.14801 17 0.147324C17 0.146639 17 0.145953 17 0.145266C17 0.14458 17 0.143893 17 0.143205C17 0.142518 17 0.14183 17 0.141141C17 0.140453 17 0.139764 17 0.139074C17 0.138385 17 0.137695 17 0.137005C17 0.136314 17 0.135623 17 0.134932C17 0.13424 17 0.133548 17 0.132856C17 0.132164 17 0.131471 17 0.130777C17 0.130084 17 0.12939 17 0.128696C17 0.128001 17 0.127306 17 0.126611C17 0.125915 17 0.12522 17 0.124523C17 0.123827 17 0.12313 17 0.122432C17 0.121735 17 0.121037 17 0.120338C17 0.11964 17 0.118941 17 0.118241C17 0.117542 17 0.116842 17 0.116141C17 0.115441 17 0.11474 17 0.114038C17 0.113336 17 0.112634 17 0.111932C17 0.111229 17 0.110526 17 0.109822C17 0.109119 17 0.108414 17 0.10771C17 0.107005 17 0.1063 17 0.105594C17 0.104888 17 0.104182 17 0.103475C17 0.102768 17 0.102061 17 0.101353C17 0.100645 17 0.0999362 17 0.0992272C17 0.0985182 17 0.0978086 17 0.0970985C17 0.0963884 17 0.0956778 17 0.0949666C17 0.0942554 17 0.0935437 17 0.0928314C17 0.0921191 17 0.0914063 17 0.0906929C17 0.0899796 17 0.0892656 17 0.0885512C17 0.0878367 17 0.0871217 17 0.0864061C17 0.0856905 17 0.0849744 17 0.0842577C17 0.083541 17 0.0828237 17 0.0821059C17 0.0813881 17 0.0806697 17 0.0799508C17 0.0792319 17 0.0785124 17 0.0777923C17 0.0770723 17 0.0763516 17 0.0756305C17 0.0749093 17 0.0741875 17 0.0734652C17 0.0727428 17 0.0720199 17 0.0712965C17 0.070573 17 0.0698489 17 0.0691243C17 0.0683997 17 0.0676745 17 0.0669487C17 0.066223 17 0.0654966 17 0.0647697C17 0.0640427 17 0.0633152 17 0.0625871C17 0.061859 17 0.0611304 17 0.0604011C17 0.0596718 17 0.058942 17 0.0582116C17 0.0574811 17 0.0567501 17 0.0560185C17 0.0552869 17 0.0545547 17 0.0538219C17 0.0530891 17 0.0523557 17 0.0516217C17 0.0508877 17 0.0501531 17 0.0494179C17 0.0486827 17 0.047947 17 0.0472106C17 0.0464742 17 0.0457372 17 0.0449996C17 0.044262 17 0.0435238 17 0.0427851C17 0.0420463 17 0.0413069 17 0.0405668C17 0.0398268 17 0.0390862 17 0.038345C17 0.0376038 17 0.0368619 17 0.0361195C17 0.035377 17 0.034634 17 0.0338903C17 0.0331466 17 0.0324023 17 0.0316574C17 0.0309125 17 0.0301669 17 0.0294208C17 0.0286746 17 0.0279278 17 0.0271804C17 0.026433 17 0.025685 17 0.0249363C17 0.0241877 17 0.0234384 17 0.0226885C17 0.0219386 17 0.021188 17 0.0204369C17 0.0196857 17 0.0189339 17 0.0181815C17 0.017429 17 0.016676 17 0.0159223C17 0.0151686 17 0.0144142 17 0.0136592C17 0.0129043 17 0.0121486 17 0.0113924C17 0.0106361 17 0.00987921 17 0.00912166C17 0.00836411 17 0.00760592 17 0.00684708C17 0.00608824 17 0.00532876 17 0.00456862C17 0.00380849 17 0.0030477 17 0.00228627C17 0.00152483 17 0.000762743 17 0H16ZM16 1V-2.4967e-08H8V1V2H16V1ZM8 1H9V0H8H7V1H8Z" fill="#083979" mask="url(#path-4-inside-1_432_6)"/>
<path d="M4.0427 8.49515L9.55334 5.52073L9.49545 11.5744L4.0427 8.49515Z" fill="#083979"/>
<path d="M19.6809 8.56833L13.9162 11.5403L13.9741 5.48665L19.6809 8.56833Z" fill="#083979"/>
<rect x="12.6152" y="4" width="1" height="9" transform="rotate(16.8932 12.6152 4)" fill="#083979"/>
</svg>
