<svg width="23" height="23" viewBox="0 0 23 23" fill="none" xmlns="http://www.w3.org/2000/svg">
<rect x="-0.506486" y="0.492001" width="21.7063" height="21.6406" rx="4.5" transform="matrix(-0.999873 -0.0159126 -0.0130977 0.999914 21.9935 0.353311)" fill="#FF9000" stroke="#083979"/>
<ellipse cx="1.62886" cy="1.70232" rx="1.62886" ry="1.70232" transform="matrix(-0.999983 0.00577261 0.00475131 0.999989 6.36719 3.42773)" fill="#083979"/>
<path d="M6.4252 12.6375C4.05724 11.8722 2.75014 15.3733 1.95 17.7536C1.9202 17.8423 1.88103 17.9265 1.83243 18.0064C1.71363 18.2017 1.65054 18.4259 1.64997 18.6545L1.64952 18.8345L1.64821 19.3615L1.64774 19.5515C1.64737 19.7022 1.66687 19.8523 1.70575 19.9979L1.71331 20.0262C1.73979 20.1254 1.77678 20.2214 1.82366 20.3127C1.87384 20.4104 1.93502 20.5021 2.00601 20.5859L2.03877 20.6246C2.13221 20.7349 2.23803 20.8341 2.35416 20.9202L2.47729 21.0116L2.77525 21.2094C3.18201 21.4142 3.6308 21.5216 4.0861 21.5229L19.0626 21.5681C19.1963 21.5685 19.3298 21.5547 19.4606 21.527C19.7389 21.4681 20.0003 21.3473 20.2255 21.1735L20.3957 21.0421C20.5805 20.8995 20.7345 20.7208 20.8482 20.5169L20.9447 20.3631C21.0084 20.2617 21.0614 20.1539 21.103 20.0415C21.1743 19.8491 21.211 19.6455 21.2115 19.4402L21.2116 19.3975L21.2121 19.1998C21.2127 18.938 21.1915 18.6775 21.158 18.4178C20.6796 14.7032 21.0932 8.50924 17.028 8.49698C13.9994 8.48785 14.0441 17.2679 11.0996 17.1746C8.15513 17.0813 8.7264 13.3812 6.4252 12.6375Z" stroke="#083979"/>
</svg>
