<svg width="67" height="61" viewBox="0 0 67 61" fill="none" xmlns="http://www.w3.org/2000/svg">
<rect x="-2.02866" y="1.97092" width="61.7141" height="55.4479" rx="3" transform="matrix(-0.999896 -0.0144367 -0.0144367 0.999896 62.5368 0.919649)" stroke="#FF9000" stroke-width="4"/>
<ellipse cx="4.71415" cy="4.46974" rx="4.71415" ry="4.46974" transform="matrix(-0.999986 0.00523713 0.00523713 0.999986 16.9771 7.54932)" fill="#FFFF00"/>
<path d="M16.906 31.8393C9.52556 29.6753 5.45152 39.5748 2.95757 46.3056C2.86455 46.5567 2.74345 46.7936 2.59436 47.0159C2.223 47.5699 2.02387 48.2213 2.02204 48.8881L2.02075 49.3629L2.01667 50.8531L2.01523 51.3786C2.01405 51.8121 2.0756 52.2434 2.19798 52.6592L2.2153 52.7181C2.30063 53.008 2.41887 53.2872 2.56772 53.5502C2.72128 53.8215 2.90637 54.0738 3.11913 54.3017L3.28241 54.4766C3.54149 54.7541 3.83133 55.0012 4.14633 55.2131L4.60082 55.5189L5.52952 56.0784L6.47432 56.51C7.1222 56.8059 7.82582 56.96 8.53808 56.962L56.4397 57.093C56.7607 57.0939 57.0811 57.0639 57.3963 57.0033L57.8041 56.925C58.4959 56.7921 59.1519 56.5146 59.729 56.1105L60.4832 55.5824C61.0375 55.1943 61.5063 54.6966 61.8607 54.1202L62.1727 53.6691C62.3637 53.393 62.524 53.097 62.6508 52.7862C62.8753 52.2359 62.9915 51.6475 62.9931 51.0533L62.9934 50.9548L62.9968 49.7166C62.9976 49.4286 62.9735 49.1463 62.9283 48.8619C61.2724 38.4531 62.9009 20.1663 49.9537 20.1309C40.5139 20.1051 40.6532 44.9328 31.4756 44.669C22.298 44.4051 24.0785 33.9423 16.906 31.8393Z" stroke="#FF9000" stroke-width="4"/>
</svg>
