<svg width="6682" height="5217" viewBox="0 0 6682 5217" fill="none" xmlns="http://www.w3.org/2000/svg">
<rect x="5428.33" y="1159.35" width="1392.17" height="1259.42" rx="300" transform="rotate(25.775 5428.33 1159.35)" fill="#08198E"/>
<rect x="5428.33" y="1159.35" width="1392.17" height="1259.42" rx="300" transform="rotate(25.775 5428.33 1159.35)" fill="#08198E"/>
<rect x="5428.33" y="1159.35" width="1392.17" height="1259.42" rx="300" transform="rotate(25.775 5428.33 1159.35)" fill="#08198E"/>
<circle cx="5570.69" cy="1491.55" r="143.982" transform="rotate(25.775 5570.69 1491.55)" fill="#FFFF00"/>
<circle cx="5570.69" cy="1491.55" r="143.982" transform="rotate(25.775 5570.69 1491.55)" fill="#FFFF00"/>
<path d="M5451.83 1889.75C5320.61 1767.17 5127.68 1954.01 5005.62 2077.74L4976.8 2095.99L4960.91 2128.91L4945.08 2161.68L4932.56 2187.6L4927.5 2215.56L4928.36 2237.74L4936.43 2266.94L4948.91 2289.84L4962.08 2311.3L4992.4 2349.67L6007.39 2839.79L6050.99 2850.65L6120.01 2836.9L6140.28 2822.96L6161.74 2809.78L6186.38 2786.38L6196.98 2764.43L6214.72 2727.69C6287.36 2482.88 6523.85 2087.51 6254.56 1957.47C6060.86 1863.94 5801.52 2411.85 5615.72 2315.66C5429.93 2219.47 5577.01 2006.68 5451.83 1889.75Z" fill="#3657FF"/>
<path d="M5451.83 1889.75C5320.61 1767.17 5127.68 1954.01 5005.62 2077.74L4976.8 2095.99L4960.91 2128.91L4945.08 2161.68L4932.56 2187.6L4927.5 2215.56L4928.36 2237.74L4936.43 2266.94L4948.91 2289.84L4962.08 2311.3L4992.4 2349.67L6007.39 2839.79L6050.99 2850.65L6120.01 2836.9L6140.28 2822.96L6161.74 2809.78L6186.38 2786.38L6196.98 2764.43L6214.72 2727.69C6287.36 2482.88 6523.85 2087.51 6254.56 1957.47C6060.86 1863.94 5801.52 2411.85 5615.72 2315.66C5429.93 2219.47 5577.01 2006.68 5451.83 1889.75Z" fill="#3657FF"/>
<rect x="2880.62" y="478.889" width="1392.17" height="1259.42" rx="300" transform="rotate(12.9514 2880.62 478.889)" fill="#08198E"/>
<rect x="2880.62" y="478.889" width="1392.17" height="1259.42" rx="300" transform="rotate(12.9514 2880.62 478.889)" fill="#08198E"/>
<rect x="2880.62" y="478.889" width="1392.17" height="1259.42" rx="300" transform="rotate(12.9514 2880.62 478.889)" fill="#08198E"/>
<circle cx="3093.16" cy="771.207" r="143.982" transform="rotate(12.9514 3093.16 771.207)" fill="#FFFF00"/>
<circle cx="3093.16" cy="771.207" r="143.982" transform="rotate(12.9514 3093.16 771.207)" fill="#FFFF00"/>
<path d="M3065.64 1185.86C2910.49 1095.47 2763.84 1320.46 2672.29 1468.2L2648.24 1492.39L2640.04 1528.02L2631.89 1563.48L2625.43 1591.54L2626.7 1619.92L2632.46 1641.36L2646.81 1668.04L2664.06 1687.59L2681.67 1705.6L2719.75 1736.28L3818.21 1988.9L3863.13 1989.81L3927.37 1961.09L3944.04 1942.99L3962.05 1925.38L3980.88 1897.09L3986.34 1873.34L3995.48 1833.58C4011.98 1578.75 4154.82 1140.75 3863.37 1073.73C3653.75 1025.52 3522.49 1617.33 3319.98 1564.77C3117.46 1512.22 3213.65 1272.1 3065.64 1185.86Z" fill="#3657FF"/>
<path d="M3065.64 1185.86C2910.49 1095.47 2763.84 1320.46 2672.29 1468.2L2648.24 1492.39L2640.04 1528.02L2631.89 1563.48L2625.43 1591.54L2626.7 1619.92L2632.46 1641.36L2646.81 1668.04L2664.06 1687.59L2681.67 1705.6L2719.75 1736.28L3818.21 1988.9L3863.13 1989.81L3927.37 1961.09L3944.04 1942.99L3962.05 1925.38L3980.88 1897.09L3986.34 1873.34L3995.48 1833.58C4011.98 1578.75 4154.82 1140.75 3863.37 1073.73C3653.75 1025.52 3522.49 1617.33 3319.98 1564.77C3117.46 1512.22 3213.65 1272.1 3065.64 1185.86Z" fill="#3657FF"/>
<rect y="1897.28" width="1392.17" height="1259.42" rx="300" transform="rotate(-37.3257 0 1897.28)" fill="#08198E"/>
<rect y="1897.28" width="1392.17" height="1259.42" rx="300" transform="rotate(-37.3257 0 1897.28)" fill="#08198E"/>
<rect y="1897.28" width="1392.17" height="1259.42" rx="300" transform="rotate(-37.3257 0 1897.28)" fill="#08198E"/>
<circle cx="360.661" cy="1920.62" r="143.982" transform="rotate(-37.3257 360.661 1920.62)" fill="#FFFF00"/>
<circle cx="360.661" cy="1920.62" r="143.982" transform="rotate(-37.3257 360.661 1920.62)" fill="#FFFF00"/>
<path d="M662.006 2206.78C493.322 2268.34 572.659 2524.93 627.779 2689.76L631.015 2723.72L653.183 2752.79L675.245 2781.72L692.701 2804.62L715.341 2821.78L735.516 2831.05L765.203 2837.07L791.269 2836.29L816.371 2834.26L864.305 2824.58L1760.61 2141.15L1790.01 2107.18L1808.98 2039.41L1805.71 2015.03L1803.67 1989.92L1793.95 1957.36L1779.17 1937.98L1754.43 1905.53C1568.97 1729.99 1323.38 1340.22 1085.57 1521.54C914.522 1651.97 1285.83 2131.13 1115.98 2253.31C946.14 2375.49 822.918 2148.05 662.006 2206.78Z" fill="#3657FF"/>
<rect x="1651.25" y="2797.45" width="3171.5" height="2362.05" rx="422.5" fill="#0510A6" stroke="#F2FF00" stroke-width="115"/>
<circle cx="3232.41" cy="3983.02" r="769.012" transform="rotate(1.90659 3232.41 3983.02)" fill="#0510A6" stroke="#FFF700" stroke-width="115"/>
<circle cx="3237.88" cy="3981.39" r="370.193" transform="rotate(1.90659 3237.88 3981.39)" fill="#0510A6" stroke="#FFF700" stroke-width="115"/>
<circle cx="4478.16" cy="3196.48" r="88.1827" transform="rotate(1.90659 4478.16 3196.48)" stroke="#FF0000" stroke-width="115"/>
<circle cx="4477.98" cy="3196.12" r="30" transform="rotate(1.90659 4477.98 3196.12)" stroke="#FF0000" stroke-width="57.9943"/>
<path d="M4290.19 2767.42H2211.05C2188.11 2767.42 2173.65 2742.71 2184.9 2722.71L2452.36 2247.13C2457.67 2237.69 2467.67 2231.84 2478.51 2231.84H4053.99C4065.39 2231.84 4075.8 2238.29 4080.86 2248.49L4317.06 2724.07C4326.96 2744.01 4312.46 2767.42 4290.19 2767.42Z" fill="#0510A6" stroke="#F2FF00" stroke-width="67"/>
</svg>
