<svg width="31" height="24" viewBox="0 0 31 24" fill="none" xmlns="http://www.w3.org/2000/svg">
<rect x="0.5" y="0.5" width="23" height="19" rx="3.5" fill="#FF9000" stroke="#083979"/>
<path d="M17.741 10.7575L15.5209 20.4758L21.0913 13.7865L21.0708 13.4539L21.091 13.1652L21.186 12.9589L21.3381 12.777L21.6523 12.6392L21.9452 12.5931L22.1973 12.6883L22.5468 12.9713L22.6325 13.2259L22.5979 13.4921L22.5184 13.7328L22.3228 13.9666L22.1145 14.0703L21.8884 14.116L21.7002 14.1162L21.4605 14.0855L15.877 20.7641L20.6084 18.8212L25.1719 16.775L25.7259 16.1124L26.6262 10.8164L23.2569 8.08792L18.295 10.0948L17.741 10.7575Z" fill="#083979"/>
<path d="M23.6611 8.00123L23.7228 7.70257L25.1621 5.98093L25.41 5.90928L28.476 8.39213L28.5512 8.72541L27.1119 10.447L26.8326 10.5695L23.6611 8.00123Z" fill="#083979"/>
<path d="M17.741 10.7575L15.5209 20.4758L21.0913 13.7865L21.0708 13.4539L21.091 13.1652L21.186 12.9589L21.3381 12.777L21.6523 12.6392L21.9452 12.5931L22.1973 12.6883L22.5468 12.9713L22.6325 13.2259L22.5979 13.4921L22.5184 13.7328L22.3228 13.9666L22.1145 14.0703L21.8884 14.116L21.7002 14.1162L21.4605 14.0855L15.877 20.7641L20.6084 18.8212L25.1719 16.775L25.7259 16.1124L26.6262 10.8164L23.2569 8.08792L18.295 10.0948L17.741 10.7575Z" stroke="white" stroke-width="0.3"/>
<path d="M23.6611 8.00123L23.7228 7.70257L25.1621 5.98093L25.41 5.90928L28.476 8.39213L28.5512 8.72541L27.1119 10.447L26.8326 10.5695L23.6611 8.00123Z" stroke="white" stroke-width="0.3"/>
<rect x="3" y="3" width="18" height="2" rx="1" fill="#083979"/>
<rect x="3" y="7" width="18" height="2" rx="1" fill="#083979"/>
<rect x="3" y="15" width="10" height="2" rx="1" fill="#083979"/>
<rect x="3" y="11" width="10" height="2" rx="1" fill="#083979"/>
</svg>
