<svg width="3973" height="3869" viewBox="0 0 3973 3869" fill="none" xmlns="http://www.w3.org/2000/svg">
<rect x="398" y="430" width="3175" height="3008" rx="500" fill="#FFF1BF"/>
<rect x="965.723" width="3175" height="3008" rx="500" transform="rotate(18.7265 965.723 0)" fill="white"/>
<path d="M1206 2702C1123.33 2702 1044.67 2686.67 970 2656C895.333 2624 832 2579.33 780 2522C728 2464.67 693.333 2397.33 676 2320L950 2228C972.667 2292 1006 2340.67 1050 2374C1094 2406 1146 2422 1206 2422C1255.33 2422 1297.33 2412.67 1332 2394C1368 2375.33 1396 2349.33 1416 2316C1436 2281.33 1446 2241.33 1446 2196C1446 2150.67 1436 2112 1416 2080C1397.33 2046.67 1370 2021.33 1334 2004C1299.33 1985.33 1256.67 1976 1206 1976C1176.67 1976 1147.33 1979.33 1118 1986C1088.67 1992.67 1062 2002 1038 2014L966 1864L1348 1448H766V1188H1696V1428L1304 1874L1314 1748C1403.33 1748 1480.67 1766.67 1546 1804C1612.67 1840 1664 1890.67 1700 1956C1737.33 2021.33 1756 2097.33 1756 2184C1756 2282.67 1732 2371.33 1684 2450C1636 2528.67 1570.67 2590.67 1488 2636C1405.33 2680 1311.33 2702 1206 2702Z" fill="#042652"/>
<path d="M1339 2702C1256.33 2702 1177.67 2686.67 1103 2656C1028.33 2624 965 2579.33 913 2522C861 2464.67 826.333 2397.33 809 2320L1083 2228C1105.67 2292 1139 2340.67 1183 2374C1227 2406 1279 2422 1339 2422C1388.33 2422 1430.33 2412.67 1465 2394C1501 2375.33 1529 2349.33 1549 2316C1569 2281.33 1579 2241.33 1579 2196C1579 2150.67 1569 2112 1549 2080C1530.33 2046.67 1503 2021.33 1467 2004C1432.33 1985.33 1389.67 1976 1339 1976C1309.67 1976 1280.33 1979.33 1251 1986C1221.67 1992.67 1195 2002 1171 2014L1099 1864L1481 1448H899V1188H1829V1428L1437 1874L1447 1748C1536.33 1748 1613.67 1766.67 1679 1804C1745.67 1840 1797 1890.67 1833 1956C1870.33 2021.33 1889 2097.33 1889 2184C1889 2282.67 1865 2371.33 1817 2450C1769 2528.67 1703.67 2590.67 1621 2636C1538.33 2680 1444.33 2702 1339 2702Z" fill="#042652"/>
<path d="M1970 2606V1116H2456C2617.33 1116 2757.33 1148 2876 1212C2994.67 1276 3086.67 1364 3152 1476C3217.33 1588 3250 1716 3250 1860C3250 2004 3217.33 2132.67 3152 2246C3086.67 2358 2994.67 2446 2876 2510C2757.33 2574 2617.33 2606 2456 2606H1970ZM2280 2336H2464C2561.33 2336 2645.33 2316.67 2716 2278C2786.67 2238 2841.33 2182.67 2880 2112C2920 2040 2940 1956 2940 1860C2940 1762.67 2920 1678.67 2880 1608C2841.33 1537.33 2786.67 1482.67 2716 1444C2645.33 1405.33 2561.33 1386 2464 1386H2280V2336Z" fill="#042652"/>
<path d="M2101 2750V1260H2587C2748.33 1260 2888.33 1292 3007 1356C3125.67 1420 3217.67 1508 3283 1620C3348.33 1732 3381 1860 3381 2004C3381 2148 3348.33 2276.67 3283 2390C3217.67 2502 3125.67 2590 3007 2654C2888.33 2718 2748.33 2750 2587 2750H2101ZM2411 2480H2595C2692.33 2480 2776.33 2460.67 2847 2422C2917.67 2382 2972.33 2326.67 3011 2256C3051 2184 3071 2100 3071 2004C3071 1906.67 3051 1822.67 3011 1752C2972.33 1681.33 2917.67 1626.67 2847 1588C2776.33 1549.33 2692.33 1530 2595 1530H2411V2480Z" fill="#042652"/>
</svg>
