<svg width="378" height="310" viewBox="0 0 378 310" fill="none" xmlns="http://www.w3.org/2000/svg">
<path d="M81.6093 309.845L81.7548 200.957L180.295 309.928L264.283 309.999L12.6641 51.8066L12.3193 309.786L81.6093 309.845Z" fill="#083979"/>
<path d="M253.156 200.551C310.534 174.558 323.76 99.053 277.45 50.5777C231.14 2.10236 82.295 16.7605 24.9152 42.7506L114.751 86.7542C144.688 73.1959 202.079 62.3367 226.24 87.6275C250.4 112.918 248.538 147.065 216.002 160.86L253.156 200.551Z" fill="#083979"/>
<path d="M191.759 102.312L172.974 149.953L162.771 122.195L129.742 110.595L191.759 102.312Z" fill="#03529C"/>
<path d="M377.901 310L293.913 309.929L176.816 183.629L226.687 154.836L252.73 183.629L377.901 310Z" fill="#083979"/>
</svg>
